<svg xmlns="http://www.w3.org/2000/svg" xmlns:xlink="http://www.w3.org/1999/xlink" width="800" zoomAndPan="magnify" viewBox="0 0 600 599.999999" height="800" preserveAspectRatio="xMidYMid meet" version="1.0"><defs><clipPath id="ac8ccd86fa"><path d="M 60 49.605469 L 532.5 49.605469 L 532.5 522 L 60 522 Z M 60 49.605469 " clip-rule="nonzero"/></clipPath></defs><path fill="#32393f" d="M 225.964844 86.640625 L 225.964844 124.480469 C 210.828125 128.273438 197.375 133.914062 184.921875 141.117188 L 158.15625 114.339844 L 96.960938 175.539062 L 123.734375 202.304688 C 116.53125 214.757812 110.894531 228.207031 107.097656 242.421875 L 69.257812 242.421875 L 69.257812 328.964844 L 107.097656 328.964844 C 110.894531 343.179688 116.53125 356.628906 123.734375 369.082031 L 96.960938 395.847656 L 158.15625 457.046875 L 184.921875 430.269531 C 197.375 437.472656 210.828125 443.113281 225.964844 446.90625 L 225.964844 484.746094 L 276.96875 484.746094 L 276.96875 429.195312 L 284.976562 422.097656 L 276.96875 415.011719 L 213.378906 285.691406 L 276.96875 156.375 L 284.976562 140.648438 L 276.96875 132.933594 L 276.96875 86.640625 Z M 225.964844 86.640625 " fill-opacity="1" fill-rule="nonzero"/><path fill="#697c84" d="M 276.96875 156.503906 L 328.796875 275.332031 L 276.96875 415.140625 C 275.347656 415.335938 271.21875 415.4375 268.3125 415.4375 C 196.726562 415.4375 138.695312 357.40625 138.695312 285.824219 C 138.695312 214.238281 196.726562 156.207031 268.3125 156.207031 C 271.21875 156.207031 275.347656 156.308594 276.96875 156.503906 Z M 276.96875 156.503906 " fill-opacity="1" fill-rule="nonzero"/><path fill="#fdfdfd" d="M 276.96875 132.933594 C 276.96875 145.230469 276.96875 418.351562 276.96875 429.195312 C 297.660156 429.195312 428.378906 429.195312 448.847656 429.195312 C 448.847656 393.722656 448.847656 167.738281 448.847656 132.933594 C 443.472656 132.933594 280.722656 132.933594 276.96875 132.933594 Z M 276.96875 132.933594 " fill-opacity="1" fill-rule="nonzero"/><path fill="#000000" d="M 344.390625 230.429688 C 322.695312 230.429688 305.042969 248.082031 305.042969 269.777344 L 305.042969 322.726562 C 305.042969 327.839844 309.1875 331.984375 314.300781 331.984375 C 319.414062 331.984375 323.558594 327.839844 323.558594 322.726562 L 323.558594 299.582031 L 365.222656 299.582031 L 365.222656 322.726562 C 365.222656 327.839844 369.367188 331.984375 374.480469 331.984375 C 379.59375 331.984375 383.738281 327.839844 383.738281 322.726562 L 383.738281 269.777344 C 383.738281 248.035156 366.136719 230.429688 344.390625 230.429688 Z M 323.558594 281.0625 L 323.558594 269.777344 C 323.558594 258.292969 332.90625 248.945312 344.390625 248.945312 C 355.902344 248.945312 365.222656 258.265625 365.222656 269.777344 L 365.222656 281.0625 Z M 323.558594 281.0625 " fill-opacity="1" fill-rule="nonzero"/><path fill="#000000" d="M 411.511719 230.144531 C 406.402344 230.144531 402.253906 234.289062 402.253906 239.402344 L 402.253906 322.726562 C 402.253906 327.839844 406.402344 331.984375 411.511719 331.984375 C 416.625 331.984375 420.773438 327.839844 420.773438 322.726562 L 420.773438 239.402344 C 420.773438 234.289062 416.625 230.144531 411.511719 230.144531 Z M 411.511719 230.144531 " fill-opacity="1" fill-rule="nonzero"/><g clip-path="url(#ac8ccd86fa)"><path fill="#000000" d="M 522.914062 271.804688 L 458.105469 271.804688 C 458.105469 266.179688 458.105469 258.796875 458.105469 253.289062 L 504.398438 253.289062 C 509.507812 253.289062 513.65625 249.144531 513.65625 244.03125 L 513.65625 220.886719 C 513.65625 215.773438 509.507812 211.628906 504.398438 211.628906 C 499.285156 211.628906 495.140625 215.773438 495.140625 220.886719 L 495.140625 234.773438 L 458.105469 234.773438 L 458.105469 132.933594 C 458.105469 127.820312 453.960938 123.671875 448.847656 123.671875 L 421.074219 123.671875 L 421.074219 86.640625 L 434.960938 86.640625 C 440.074219 86.640625 444.21875 82.496094 444.21875 77.382812 C 444.21875 72.269531 440.074219 68.125 434.960938 68.125 L 411.8125 68.125 C 406.703125 68.125 402.554688 72.269531 402.554688 77.382812 L 402.554688 123.671875 L 384.039062 123.671875 L 384.039062 58.867188 C 384.039062 53.753906 379.894531 49.605469 374.78125 49.605469 C 369.667969 49.605469 365.523438 53.753906 365.523438 58.867188 L 365.523438 123.671875 L 347.007812 123.671875 L 347.007812 77.382812 C 347.007812 72.269531 342.859375 68.125 337.75 68.125 L 314.601562 68.125 C 309.488281 68.125 305.34375 72.269531 305.34375 77.382812 C 305.34375 82.496094 309.488281 86.640625 314.601562 86.640625 L 328.488281 86.640625 L 328.488281 123.671875 L 286.226562 123.671875 L 286.226562 86.640625 C 286.226562 81.527344 282.078125 77.382812 276.96875 77.382812 L 225.964844 77.382812 C 220.851562 77.382812 216.707031 81.527344 216.707031 86.640625 L 216.707031 117.410156 C 206.207031 120.511719 196.246094 124.554688 186.546875 129.648438 L 164.703125 107.796875 C 161.089844 104.179688 155.226562 104.179688 151.609375 107.792969 L 90.410156 168.992188 C 86.796875 172.609375 86.796875 178.472656 90.414062 182.085938 L 112.265625 203.929688 C 107.339844 213.304688 103.28125 223.09375 100.140625 233.164062 L 69.257812 233.164062 C 64.144531 233.164062 60 237.308594 60 242.421875 L 60 328.96875 C 60 334.078125 64.144531 338.226562 69.257812 338.226562 L 100.140625 338.226562 C 103.28125 348.292969 107.339844 358.082031 112.265625 367.457031 L 90.414062 389.300781 C 86.800781 392.914062 86.796875 398.78125 90.414062 402.394531 L 151.609375 463.59375 C 155.226562 467.207031 161.089844 467.207031 164.703125 463.59375 L 186.550781 441.738281 C 196.25 446.832031 206.210938 450.875 216.707031 453.976562 L 216.707031 484.746094 C 216.707031 489.859375 220.851562 494.003906 225.964844 494.003906 L 276.96875 494.003906 C 282.082031 494.003906 286.226562 489.859375 286.226562 484.746094 L 286.226562 438.453125 L 328.488281 438.453125 L 328.488281 475.488281 L 314.601562 475.488281 C 309.488281 475.488281 305.34375 479.632812 305.34375 484.746094 C 305.34375 489.859375 309.488281 494.003906 314.601562 494.003906 L 337.75 494.003906 C 342.859375 494.003906 347.007812 489.859375 347.007812 484.746094 L 347.007812 438.453125 L 365.523438 438.453125 L 365.523438 512.519531 C 365.523438 517.632812 369.667969 521.777344 374.78125 521.777344 C 379.894531 521.777344 384.039062 517.632812 384.039062 512.519531 L 384.039062 438.453125 L 402.554688 438.453125 L 402.554688 484.746094 C 402.554688 489.859375 406.703125 494.003906 411.8125 494.003906 L 434.960938 494.003906 C 440.074219 494.003906 444.21875 489.859375 444.21875 484.746094 C 444.21875 479.632812 440.074219 475.488281 434.960938 475.488281 L 421.074219 475.488281 L 421.074219 438.453125 L 448.847656 438.453125 C 453.960938 438.453125 458.105469 434.308594 458.105469 429.195312 C 458.105469 419.515625 458.105469 342.363281 458.105469 327.355469 L 495.140625 327.355469 L 495.140625 341.242188 C 495.140625 346.355469 499.285156 350.5 504.398438 350.5 C 509.507812 350.5 513.65625 346.355469 513.65625 341.242188 L 513.65625 318.097656 C 513.65625 312.984375 509.507812 308.839844 504.398438 308.839844 L 458.105469 308.839844 C 458.105469 303.214844 458.105469 295.832031 458.105469 290.324219 L 522.914062 290.324219 C 528.027344 290.324219 532.171875 286.175781 532.171875 281.0625 C 532.171875 275.949219 528.027344 271.804688 522.914062 271.804688 Z M 267.710938 406.042969 C 201.621094 405.71875 147.953125 351.859375 147.953125 285.691406 C 147.953125 219.527344 201.621094 165.667969 267.710938 165.34375 Z M 267.710938 146.828125 C 191.410156 147.152344 129.4375 209.320312 129.4375 285.691406 C 129.4375 362.066406 191.410156 424.234375 267.710938 424.558594 C 267.710938 437.355469 267.710938 469.074219 267.710938 475.488281 L 235.222656 475.488281 L 235.222656 446.90625 C 235.222656 442.660156 232.335938 438.960938 228.214844 437.925781 C 214.476562 434.480469 201.832031 429.355469 189.558594 422.257812 C 185.929688 420.160156 181.339844 420.757812 178.375 423.726562 L 158.15625 443.953125 L 110.054688 395.851562 L 130.28125 375.632812 C 133.246094 372.667969 133.847656 368.078125 131.75 364.449219 C 124.855469 352.53125 119.570312 339.789062 116.042969 326.578125 C 114.960938 322.527344 111.289062 319.710938 107.097656 319.710938 L 78.515625 319.710938 L 78.515625 251.679688 L 107.097656 251.679688 C 111.289062 251.679688 114.960938 248.859375 116.042969 244.808594 C 119.570312 231.597656 124.855469 218.859375 131.746094 206.941406 C 133.847656 203.3125 133.246094 198.722656 130.28125 195.757812 L 110.054688 175.539062 L 158.15625 127.4375 L 178.375 147.660156 C 181.339844 150.628906 185.925781 151.230469 189.554688 149.128906 C 201.832031 142.03125 214.476562 136.90625 228.214844 133.460938 C 232.332031 132.425781 235.222656 128.726562 235.222656 124.480469 L 235.222656 95.898438 L 267.707031 95.898438 C 267.710938 107.8125 267.710938 134.871094 267.710938 146.828125 Z M 439.589844 419.9375 L 286.226562 419.9375 L 286.226562 142.191406 L 439.589844 142.191406 Z M 439.589844 419.9375 " fill-opacity="1" fill-rule="nonzero"/></g></svg>