<svg xmlns="http://www.w3.org/2000/svg" xmlns:xlink="http://www.w3.org/1999/xlink" width="800" zoomAndPan="magnify" viewBox="0 0 600 599.999999" height="800" preserveAspectRatio="xMidYMid meet" version="1.0"><defs><clipPath id="e6cc0d8e2c"><path d="M 138 60 L 466.773438 60 L 466.773438 549 L 138 549 Z M 138 60 " clip-rule="nonzero"/></clipPath><clipPath id="a5cc0106fb"><path d="M 133.023438 542 L 134 542 L 134 543 L 133.023438 543 Z M 133.023438 542 " clip-rule="nonzero"/></clipPath><clipPath id="8386233b4f"><path d="M 133.023438 60 L 425 60 L 425 549 L 133.023438 549 Z M 133.023438 60 " clip-rule="nonzero"/></clipPath></defs><path fill="#000000" d="M 180.878906 543.933594 L 138.453125 543.933594 L 223.207031 361.046875 L 180.878906 369.878906 L 245.15625 226.453125 L 199.800781 233.761719 L 258.324219 65.519531 L 461.6875 65.519531 L 378.289062 210.355469 L 427.203125 197.429688 L 313.269531 343.53125 L 360.070312 333.253906 L 180.878906 543.933594 " fill-opacity="1" fill-rule="nonzero"/><path fill="#fdfdfd" d="M 138.453125 543.933594 L 180.78125 361.046875 L 138.453125 369.878906 L 202.726562 226.453125 L 157.371094 233.761719 L 215.894531 65.519531 L 419.257812 65.519531 L 335.863281 210.355469 L 384.777344 197.429688 L 270.839844 343.53125 L 317.648438 333.253906 L 138.453125 543.933594 " fill-opacity="1" fill-rule="nonzero"/><path fill="#000000" d="M 178.554688 538.894531 L 149.34375 538.894531 L 311.503906 348.246094 C 312.058594 348.453125 312.65625 348.566406 313.261719 348.566406 C 313.621094 348.566406 313.988281 348.527344 314.351562 348.449219 L 346.546875 341.378906 L 178.554688 538.894531 M 283.394531 335.617188 L 377.238281 215.285156 C 377.582031 215.351562 377.929688 215.390625 378.285156 215.390625 C 378.71875 215.390625 379.152344 215.335938 379.578125 215.222656 L 414.042969 206.113281 L 318.730469 328.335938 C 318.378906 328.257812 318.011719 328.214844 317.640625 328.214844 C 317.289062 328.214844 316.921875 328.253906 316.5625 328.332031 L 283.394531 335.617188 M 346.253906 202.394531 L 422.167969 70.554688 L 452.972656 70.554688 L 382.589844 192.796875 L 346.253906 202.394531 " fill-opacity="1" fill-rule="nonzero"/><g clip-path="url(#e6cc0d8e2c)"><path fill="#231f20" d="M 180.878906 548.972656 L 138.570312 548.972656 C 139.96875 548.9375 141.332031 548.320312 142.285156 547.195312 L 145.0625 543.933594 L 180.878906 543.933594 L 360.070312 333.253906 L 316.027344 342.921875 L 321.480469 336.515625 C 322.617188 335.183594 322.957031 333.378906 322.453125 331.753906 L 427.203125 197.429688 L 381.808594 209.425781 L 388.75 200.523438 C 390.078125 198.820312 390.171875 196.457031 388.980469 194.652344 C 388.699219 194.222656 388.355469 193.847656 387.976562 193.53125 L 461.6875 65.519531 L 424.292969 65.519531 C 424.292969 64.648438 424.070312 63.777344 423.617188 62.996094 C 422.71875 61.4375 421.054688 60.476562 419.257812 60.476562 L 258.324219 60.476562 L 461.6875 60.476562 C 463.488281 60.476562 465.148438 61.4375 466.046875 62.996094 C 466.945312 64.550781 466.953125 66.46875 466.054688 68.03125 L 388.683594 202.394531 L 425.917969 192.5625 C 426.34375 192.449219 426.773438 192.390625 427.203125 192.390625 C 428.867188 192.390625 430.460938 193.21875 431.410156 194.652344 C 432.59375 196.457031 432.503906 198.820312 431.171875 200.523438 L 325.832031 335.617188 L 358.992188 328.332031 C 359.351562 328.253906 359.710938 328.214844 360.070312 328.214844 C 361.8125 328.214844 363.464844 329.125 364.386719 330.660156 C 365.5 332.507812 365.300781 334.867188 363.902344 336.515625 L 184.714844 547.195312 C 183.757812 548.320312 182.351562 548.972656 180.878906 548.972656 " fill-opacity="1" fill-rule="nonzero"/></g><path fill="#000000" d="M 180.878906 543.933594 L 145.0625 543.933594 L 149.34375 538.894531 L 178.554688 538.894531 L 346.546875 341.378906 L 314.351562 348.449219 C 313.988281 348.527344 313.621094 348.566406 313.261719 348.566406 C 312.65625 348.566406 312.058594 348.453125 311.503906 348.246094 L 316.027344 342.921875 L 360.070312 333.253906 L 180.878906 543.933594 L 180.878906 538.894531 L 180.878906 543.933594 M 322.453125 331.753906 C 322.335938 331.378906 322.171875 331.007812 321.964844 330.660156 C 321.234375 329.449219 320.050781 328.628906 318.730469 328.335938 L 414.042969 206.113281 L 379.578125 215.222656 C 379.152344 215.335938 378.71875 215.390625 378.285156 215.390625 C 377.929688 215.390625 377.582031 215.351562 377.238281 215.285156 L 381.808594 209.425781 L 427.203125 197.429688 L 322.453125 331.753906 M 387.976562 193.53125 C 387.074219 192.796875 385.945312 192.390625 384.777344 192.390625 C 384.347656 192.390625 383.917969 192.449219 383.488281 192.5625 L 382.589844 192.796875 L 452.972656 70.554688 L 422.167969 70.554688 L 423.625 68.03125 C 424.070312 67.25 424.292969 66.382812 424.292969 65.519531 L 461.6875 65.519531 L 387.976562 193.53125 " fill-opacity="1" fill-rule="nonzero"/><g clip-path="url(#a5cc0106fb)"><path fill="#231f20" d="M 133.511719 542.945312 C 133.511719 542.945312 133.511719 542.945312 133.511719 542.941406 C 133.511719 542.945312 133.511719 542.945312 133.511719 542.945312 M 133.511719 542.941406 C 133.523438 542.878906 133.539062 542.824219 133.550781 542.761719 L 133.546875 542.792969 C 133.535156 542.84375 133.523438 542.894531 133.511719 542.941406 " fill-opacity="1" fill-rule="nonzero"/></g><path fill="#fdfdfd" d="M 148.023438 524.90625 L 185.6875 362.183594 C 186.074219 360.515625 185.578125 358.753906 184.375 357.53125 C 183.421875 356.550781 182.117188 356.011719 180.78125 356.011719 C 180.4375 356.011719 180.09375 356.050781 179.75 356.121094 L 147.078125 362.929688 L 207.324219 228.507812 C 208.078125 226.828125 207.847656 224.851562 206.722656 223.382812 C 205.761719 222.136719 204.273438 221.414062 202.722656 221.414062 C 202.457031 221.414062 202.191406 221.4375 201.921875 221.476562 L 164.902344 227.453125 L 219.476562 70.554688 L 410.550781 70.554688 L 331.496094 207.84375 C 330.476562 209.605469 330.625 211.800781 331.859375 213.417969 C 332.832031 214.683594 334.316406 215.390625 335.855469 215.390625 C 336.289062 215.390625 336.722656 215.335938 337.148438 215.222656 L 371.621094 206.113281 L 266.871094 340.433594 C 265.5625 342.113281 265.445312 344.410156 266.582031 346.214844 C 267.519531 347.699219 269.132812 348.566406 270.835938 348.566406 C 271.195312 348.566406 271.558594 348.527344 271.917969 348.449219 L 304.125 341.378906 L 148.023438 524.90625 " fill-opacity="1" fill-rule="nonzero"/><g clip-path="url(#8386233b4f)"><path fill="#231f20" d="M 138.453125 548.972656 C 137.683594 548.972656 136.914062 548.792969 136.1875 548.429688 C 134.152344 547.410156 133.066406 545.167969 133.511719 542.945312 C 133.511719 542.945312 133.511719 542.945312 133.511719 542.941406 C 133.523438 542.894531 133.535156 542.84375 133.546875 542.792969 L 133.550781 542.761719 L 174.097656 367.585938 L 139.480469 374.808594 C 139.132812 374.875 138.789062 374.914062 138.445312 374.914062 C 136.941406 374.914062 135.496094 374.234375 134.53125 373.03125 C 133.339844 371.554688 133.078125 369.546875 133.855469 367.816406 L 194.3125 232.910156 L 158.175781 238.738281 C 157.910156 238.78125 157.640625 238.800781 157.375 238.800781 C 155.902344 238.800781 154.476562 238.148438 153.515625 237 C 152.378906 235.652344 152.035156 233.78125 152.617188 232.109375 L 211.136719 63.859375 C 211.84375 61.835938 213.75 60.476562 215.894531 60.476562 L 419.257812 60.476562 C 421.054688 60.476562 422.71875 61.4375 423.617188 62.996094 C 424.070312 63.777344 424.292969 64.648438 424.292969 65.519531 L 215.894531 65.519531 L 157.371094 233.761719 L 202.324219 226.511719 L 201.023438 230.25 L 138.453125 369.878906 L 180.78125 361.046875 L 138.453125 543.933594 L 145.0625 543.933594 L 142.285156 547.195312 C 141.332031 548.320312 139.96875 548.9375 138.570312 548.972656 C 138.53125 548.972656 138.492188 548.972656 138.453125 548.972656 M 138.453125 543.933594 L 143.359375 545.070312 L 138.453125 543.933594 " fill-opacity="1" fill-rule="nonzero"/></g><path fill="#000000" d="M 145.0625 543.933594 L 138.453125 543.933594 L 317.648438 333.253906 L 270.839844 343.53125 L 384.777344 197.429688 L 335.863281 210.355469 L 419.257812 65.519531 L 258.324219 65.519531 L 424.292969 65.519531 C 424.292969 66.382812 424.070312 67.25 423.625 68.03125 L 422.167969 70.554688 L 346.253906 202.394531 L 382.589844 192.796875 L 383.488281 192.5625 C 383.917969 192.449219 384.347656 192.390625 384.777344 192.390625 C 385.945312 192.390625 387.074219 192.796875 387.976562 193.53125 L 378.289062 210.355469 L 381.808594 209.425781 L 377.238281 215.285156 L 283.394531 335.617188 L 316.5625 328.332031 C 316.921875 328.253906 317.289062 328.214844 317.640625 328.214844 C 318.011719 328.214844 318.378906 328.257812 318.730469 328.335938 C 320.050781 328.628906 321.234375 329.449219 321.964844 330.660156 C 322.171875 331.007812 322.335938 331.378906 322.453125 331.753906 L 313.269531 343.53125 L 316.027344 342.921875 L 311.503906 348.246094 L 149.34375 538.894531 L 145.0625 543.933594 " fill-opacity="1" fill-rule="nonzero"/><path fill="#070e4b" d="M 138.453125 543.933594 L 180.78125 361.046875 L 138.453125 369.878906 L 201.023438 230.25 L 202.726562 226.453125 L 202.324219 226.511719 L 157.371094 233.761719 L 215.894531 65.519531 L 419.257812 65.519531 L 335.863281 210.355469 L 384.777344 197.429688 L 270.839844 343.53125 L 317.648438 333.253906 L 138.453125 543.933594 M 180.78125 356.011719 C 182.117188 356.011719 183.421875 356.550781 184.375 357.53125 C 185.578125 358.753906 186.074219 360.515625 185.6875 362.183594 L 148.023438 524.90625 L 304.125 341.378906 L 271.917969 348.449219 C 271.558594 348.527344 271.195312 348.566406 270.835938 348.566406 C 269.132812 348.566406 267.519531 347.699219 266.582031 346.214844 C 265.445312 344.410156 265.5625 342.113281 266.871094 340.433594 L 371.621094 206.113281 L 337.148438 215.222656 C 336.722656 215.335938 336.289062 215.390625 335.855469 215.390625 C 334.316406 215.390625 332.832031 214.683594 331.859375 213.417969 C 330.625 211.800781 330.476562 209.605469 331.496094 207.84375 L 410.550781 70.554688 L 219.476562 70.554688 L 164.902344 227.453125 L 201.921875 221.476562 C 202.191406 221.4375 202.457031 221.414062 202.722656 221.414062 C 204.273438 221.414062 205.761719 222.136719 206.722656 223.382812 C 207.847656 224.851562 208.078125 226.828125 207.324219 228.507812 L 147.078125 362.929688 L 179.75 356.121094 C 180.09375 356.050781 180.4375 356.011719 180.78125 356.011719 " fill-opacity="1" fill-rule="nonzero"/><path fill="#231f20" d="M 313.269531 343.53125 L 322.453125 331.753906 C 322.957031 333.378906 322.617188 335.183594 321.480469 336.515625 L 316.027344 342.921875 L 313.269531 343.53125 M 378.289062 210.355469 L 387.976562 193.53125 C 388.355469 193.847656 388.699219 194.222656 388.980469 194.652344 C 390.171875 196.457031 390.078125 198.820312 388.75 200.523438 L 381.808594 209.425781 L 378.289062 210.355469 " fill-opacity="1" fill-rule="nonzero"/><path fill="#000000" d="M 201.023438 230.25 L 202.324219 226.511719 L 202.726562 226.453125 L 201.023438 230.25 " fill-opacity="1" fill-rule="nonzero"/></svg>