<svg xmlns="http://www.w3.org/2000/svg" xmlns:xlink="http://www.w3.org/1999/xlink" width="800" zoomAndPan="magnify" viewBox="0 0 600 599.999999" height="800" preserveAspectRatio="xMidYMid meet" version="1.0"><path fill="#ffffff" d="M 532.144531 112.96875 L 478.03125 167.082031 L 438.480469 161.515625 L 432.910156 121.960938 L 487.027344 67.847656 L 492.589844 107.402344 Z M 532.144531 112.96875 " fill-opacity="1" fill-rule="evenodd"/><path fill="#ffffff" d="M 312.234375 287.757812 C 287.617188 263.144531 247.710938 263.144531 223.097656 287.757812 C 198.484375 312.375 198.484375 352.28125 223.097656 376.894531 C 247.710938 401.507812 287.617188 401.507812 312.234375 376.894531 C 336.847656 352.28125 336.847656 312.375 312.234375 287.757812 Z M 356.800781 243.191406 C 406.027344 292.417969 406.027344 372.234375 356.800781 421.460938 C 307.574219 470.6875 227.761719 470.6875 178.53125 421.460938 C 129.304688 372.234375 129.304688 292.417969 178.53125 243.191406 C 227.761719 193.964844 307.574219 193.964844 356.800781 243.191406 Z M 356.800781 243.191406 " fill-opacity="1" fill-rule="evenodd"/><path fill="#e0e0e0" d="M 312.234375 287.757812 C 336.847656 312.375 336.847656 352.28125 312.234375 376.894531 C 287.617188 401.507812 247.710938 401.507812 223.097656 376.894531 C 198.484375 352.28125 198.484375 312.375 223.097656 287.757812 C 247.710938 263.144531 287.617188 263.144531 312.234375 287.757812 Z M 312.234375 287.757812 " fill-opacity="1" fill-rule="evenodd"/><path fill="#e0e0e0" d="M 356.800781 243.191406 C 307.574219 193.964844 227.761719 193.964844 178.53125 243.191406 C 129.304688 292.417969 129.304688 372.234375 178.53125 421.460938 C 227.761719 470.6875 307.574219 470.6875 356.800781 421.460938 C 406.027344 372.234375 406.027344 292.417969 356.800781 243.191406 Z M 401.367188 198.625 C 475.207031 272.464844 475.207031 392.183594 401.367188 466.027344 C 327.527344 539.867188 207.808594 539.867188 133.96875 466.027344 C 60.125 392.183594 60.125 272.464844 133.96875 198.625 C 207.808594 124.785156 327.527344 124.785156 401.367188 198.625 Z M 401.367188 198.625 " fill-opacity="1" fill-rule="evenodd"/><path fill="#000000" d="M 267.667969 402.667969 C 248.878906 402.667969 231.214844 395.351562 217.925781 382.066406 C 204.640625 368.78125 197.324219 351.117188 197.324219 332.328125 C 197.324219 313.539062 204.640625 295.871094 217.925781 282.585938 C 231.214844 269.300781 248.878906 261.984375 267.667969 261.984375 C 286.457031 261.984375 304.121094 269.300781 317.40625 282.585938 C 330.691406 295.871094 338.007812 313.535156 338.007812 332.328125 C 338.007812 351.117188 330.691406 368.78125 317.40625 382.066406 C 304.121094 395.351562 286.457031 402.667969 267.667969 402.667969 Z M 267.667969 276.613281 C 252.785156 276.613281 238.796875 282.410156 228.273438 292.933594 C 217.75 303.453125 211.957031 317.445312 211.957031 332.328125 C 211.957031 347.207031 217.75 361.199219 228.273438 371.71875 C 238.796875 382.242188 252.785156 388.039062 267.667969 388.039062 C 282.546875 388.039062 296.539062 382.242188 307.0625 371.71875 C 317.585938 361.199219 323.378906 347.207031 323.378906 332.328125 C 323.378906 317.445312 317.585938 303.453125 307.0625 292.933594 C 296.539062 282.410156 282.546875 276.613281 267.667969 276.613281 Z M 267.667969 276.613281 " fill-opacity="1" fill-rule="evenodd"/><path fill="#000000" d="M 267.667969 465.695312 C 250.347656 465.695312 233.464844 462.410156 217.484375 455.929688 C 200.933594 449.21875 186.089844 439.363281 173.363281 426.632812 C 160.632812 413.902344 150.777344 399.058594 144.0625 382.511719 C 137.585938 366.53125 134.296875 349.644531 134.296875 332.328125 C 134.296875 315.007812 137.582031 298.125 144.0625 282.144531 C 150.773438 265.59375 160.632812 250.75 173.363281 238.019531 C 186.089844 225.292969 200.933594 215.433594 217.484375 208.726562 C 233.464844 202.246094 250.347656 198.957031 267.667969 198.957031 C 284.984375 198.957031 301.871094 202.246094 317.851562 208.726562 C 334.398438 215.4375 349.246094 225.292969 361.972656 238.019531 C 374.703125 250.75 384.558594 265.59375 391.269531 282.144531 C 397.75 298.125 401.035156 315.007812 401.035156 332.328125 C 401.035156 349.644531 397.75 366.53125 391.269531 382.511719 C 384.558594 399.058594 374.703125 413.90625 361.972656 426.632812 C 349.246094 439.363281 334.398438 449.21875 317.851562 455.929688 C 301.867188 462.410156 284.984375 465.695312 267.667969 465.695312 Z M 267.667969 213.644531 C 237.261719 213.644531 206.855469 225.214844 183.707031 248.363281 C 137.410156 294.660156 137.410156 369.992188 183.707031 416.285156 C 230 462.582031 305.332031 462.582031 351.628906 416.285156 C 397.925781 369.992188 397.925781 294.660156 351.628906 248.363281 C 328.480469 225.214844 298.074219 213.644531 267.667969 213.644531 Z M 267.667969 213.644531 " fill-opacity="1" fill-rule="evenodd"/><path fill="#000000" d="M 267.667969 528.722656 C 242.164062 528.722656 217.296875 523.882812 193.765625 514.34375 C 169.398438 504.460938 147.539062 489.945312 128.792969 471.199219 C 110.046875 452.453125 95.53125 430.59375 85.652344 406.226562 C 76.109375 382.695312 71.269531 357.832031 71.269531 332.324219 C 71.269531 306.820312 76.109375 281.957031 85.652344 258.425781 C 95.53125 234.058594 110.046875 212.199219 128.792969 193.453125 C 147.539062 174.707031 169.398438 160.191406 193.765625 150.308594 C 217.300781 140.765625 242.164062 135.925781 267.667969 135.925781 C 293.171875 135.925781 318.035156 140.765625 341.566406 150.308594 C 365.933594 160.191406 387.796875 174.707031 406.539062 193.453125 C 425.285156 212.199219 439.800781 234.058594 449.683594 258.425781 C 459.226562 281.957031 464.066406 306.820312 464.066406 332.324219 C 464.066406 357.832031 459.226562 382.691406 449.683594 406.226562 C 439.800781 430.59375 425.285156 452.453125 406.539062 471.199219 C 387.796875 489.945312 365.933594 504.457031 341.566406 514.339844 C 318.035156 523.886719 293.171875 528.722656 267.667969 528.722656 Z M 267.667969 150.644531 C 221.121094 150.644531 174.574219 168.363281 139.140625 203.796875 C 68.269531 274.667969 68.269531 389.984375 139.140625 460.855469 C 210.011719 531.722656 325.324219 531.726562 396.195312 460.855469 C 467.066406 389.984375 467.066406 274.667969 396.195312 203.796875 C 360.757812 168.363281 314.214844 150.644531 267.667969 150.644531 Z M 267.667969 150.644531 " fill-opacity="1" fill-rule="evenodd"/><path fill="#000000" d="M 456.75 528.722656 C 454.875 528.722656 453.003906 528.007812 451.574219 526.582031 L 396.195312 471.199219 C 393.339844 468.34375 393.339844 463.710938 396.195312 460.855469 C 399.054688 457.996094 403.683594 457.996094 406.542969 460.855469 L 461.921875 516.234375 C 464.777344 519.09375 464.777344 523.722656 461.921875 526.582031 C 460.492188 528.007812 458.621094 528.722656 456.75 528.722656 Z M 456.75 528.722656 " fill-opacity="1" fill-rule="evenodd"/><path fill="#000000" d="M 78.585938 528.722656 C 76.714844 528.722656 74.839844 528.007812 73.414062 526.582031 C 70.554688 523.722656 70.554688 519.09375 73.414062 516.234375 L 128.792969 460.855469 C 131.648438 457.996094 136.28125 457.996094 139.136719 460.855469 C 141.996094 463.710938 141.996094 468.34375 139.136719 471.199219 L 83.757812 526.582031 C 82.328125 528.007812 80.457031 528.722656 78.585938 528.722656 Z M 78.585938 528.722656 " fill-opacity="1" fill-rule="evenodd"/><path fill="#000000" d="M 267.667969 339.640625 C 265.796875 339.640625 263.921875 338.929688 262.496094 337.5 C 259.636719 334.640625 259.636719 330.011719 262.496094 327.152344 L 433.304688 156.34375 C 436.164062 153.488281 440.796875 153.488281 443.652344 156.34375 C 446.507812 159.199219 446.507812 163.832031 443.652344 166.6875 L 272.839844 337.5 C 271.410156 338.925781 269.539062 339.640625 267.667969 339.640625 Z M 267.667969 339.640625 " fill-opacity="1" fill-rule="evenodd"/><path fill="#000000" d="M 478.03125 174.398438 C 477.691406 174.398438 477.351562 174.375 477.007812 174.328125 L 437.457031 168.761719 C 434.226562 168.304688 431.6875 165.765625 431.234375 162.535156 L 425.664062 122.984375 C 425.34375 120.710938 426.113281 118.414062 427.738281 116.792969 L 481.851562 62.675781 C 483.8125 60.714844 486.714844 60.03125 489.34375 60.910156 C 491.972656 61.792969 493.878906 64.082031 494.265625 66.832031 L 499.066406 100.925781 L 533.160156 105.726562 C 535.90625 106.113281 538.199219 108.019531 539.078125 110.648438 C 539.960938 113.28125 539.277344 116.183594 537.3125 118.144531 L 483.199219 172.257812 C 481.820312 173.636719 479.957031 174.398438 478.03125 174.398438 Z M 444.953125 155.039062 L 475.4375 159.328125 L 516.597656 118.167969 L 491.570312 114.644531 C 488.339844 114.1875 485.800781 111.648438 485.347656 108.417969 L 481.824219 83.394531 L 440.660156 124.554688 Z M 444.953125 155.039062 " fill-opacity="1" fill-rule="evenodd"/></svg>