<svg xmlns="http://www.w3.org/2000/svg" xmlns:xlink="http://www.w3.org/1999/xlink" width="800" zoomAndPan="magnify" viewBox="0 0 600 599.999999" height="800" preserveAspectRatio="xMidYMid meet" version="1.0"><defs><clipPath id="2ef78adef4"><path d="M 119 38.019531 L 487 38.019531 L 487 562.269531 L 119 562.269531 Z M 119 38.019531 " clip-rule="nonzero"/></clipPath></defs><g clip-path="url(#2ef78adef4)"><path fill="#130073" d="M 354.601562 38.019531 C 354.601562 38.019531 335.113281 122.746094 383.835938 198.460938 C 432.558594 274.175781 598.996094 423.363281 363.589844 562.078125 C 363.589844 562.078125 413.433594 491.238281 388.34375 442.878906 C 363.226562 394.523438 309.242188 358.542969 318.230469 282.828125 C 318.230469 282.828125 247.023438 312.449219 278.496094 446.632812 C 278.496094 446.632812 238.375 432.015625 221.515625 392.464844 C 221.515625 392.464844 196.582031 470.054688 242.308594 560.777344 C 242.308594 560.777344 0.519531 445.484375 195.460938 221.546875 C 195.460938 221.546875 199.578125 294.65625 228.445312 314.898438 C 228.445312 314.898438 180.820312 116.988281 354.578125 38.070312 Z M 354.601562 38.019531 " fill-opacity="1" fill-rule="evenodd"/></g></svg>