<svg xmlns="http://www.w3.org/2000/svg" xmlns:xlink="http://www.w3.org/1999/xlink" width="800" zoomAndPan="magnify" viewBox="0 0 600 599.999999" height="800" preserveAspectRatio="xMidYMid meet" version="1.0"><defs><clipPath id="6aaa4c64c3"><path d="M 60 52.214844 L 555.75 52.214844 L 555.75 547.964844 L 60 547.964844 Z M 60 52.214844 " clip-rule="nonzero"/></clipPath></defs><g clip-path="url(#6aaa4c64c3)"><path fill="#130073" d="M 307.65625 52.214844 C 170.757812 52.214844 60 163.097656 60 299.996094 C 60 436.894531 170.757812 547.777344 307.65625 547.777344 C 444.554688 547.777344 555.5625 436.894531 555.5625 299.996094 C 555.5625 163.097656 444.554688 52.214844 307.65625 52.214844 Z M 307.78125 498.222656 C 198.261719 498.222656 109.554688 409.515625 109.554688 299.996094 C 109.554688 190.476562 198.261719 101.773438 307.78125 101.773438 C 417.300781 101.773438 506.007812 190.476562 506.007812 299.996094 C 506.007812 409.515625 417.300781 498.222656 307.78125 498.222656 Z M 307.78125 498.222656 " fill-opacity="1" fill-rule="nonzero"/></g><path fill="#130073" d="M 320.171875 176.105469 L 283.003906 176.105469 L 283.003906 324.773438 L 412.964844 402.828125 L 431.671875 372.347656 L 320.171875 306.191406 Z M 320.171875 176.105469 " fill-opacity="1" fill-rule="nonzero"/></svg>