<svg xmlns="http://www.w3.org/2000/svg" xmlns:xlink="http://www.w3.org/1999/xlink" width="800" zoomAndPan="magnify" viewBox="0 0 600 599.999999" height="800" preserveAspectRatio="xMidYMid meet" version="1.0"><defs><clipPath id="1aa37aa121"><path d="M 60 290 L 198 290 L 198 533.550781 L 60 533.550781 Z M 60 290 " clip-rule="nonzero"/></clipPath><clipPath id="a9bac0eab3"><path d="M 231 171 L 369 171 L 369 533.550781 L 231 533.550781 Z M 231 171 " clip-rule="nonzero"/></clipPath><clipPath id="6810a7b77d"><path d="M 402 66.300781 L 540 66.300781 L 540 533.550781 L 402 533.550781 Z M 402 66.300781 " clip-rule="nonzero"/></clipPath></defs><path fill="#130073" d="M 79.367188 307.34375 C 78.21875 307.34375 77.285156 308.273438 77.285156 309.421875 L 77.285156 515.089844 C 77.285156 516.234375 78.21875 517.167969 79.367188 517.167969 L 178.984375 517.167969 C 180.132812 517.167969 181.066406 516.234375 181.066406 515.089844 L 181.066406 309.421875 C 181.066406 308.273438 180.132812 307.339844 178.984375 307.339844 L 79.367188 307.339844 Z M 79.367188 307.34375 " fill-opacity="1" fill-rule="nonzero"/><g clip-path="url(#1aa37aa121)"><path fill="#130073" d="M 79.367188 290.871094 C 69.136719 290.871094 60.816406 299.191406 60.816406 309.421875 L 60.816406 515.085938 C 60.816406 525.3125 69.136719 533.636719 79.367188 533.636719 L 178.984375 533.636719 C 189.214844 533.636719 197.535156 525.3125 197.535156 515.085938 L 197.535156 309.421875 C 197.535156 299.191406 189.214844 290.871094 178.984375 290.871094 Z M 181.0625 309.421875 L 181.0625 515.085938 C 181.0625 516.234375 180.128906 517.164062 178.984375 517.164062 L 79.363281 517.164062 C 78.214844 517.164062 77.28125 516.234375 77.28125 515.085938 L 77.28125 309.421875 C 77.28125 308.273438 78.214844 307.339844 79.363281 307.339844 L 178.984375 307.339844 C 180.128906 307.34375 181.0625 308.273438 181.0625 309.421875 Z M 181.0625 309.421875 " fill-opacity="1" fill-rule="nonzero"/></g><path fill="#130073" d="M 349.75 187.972656 L 250.132812 187.972656 C 248.984375 187.972656 248.050781 188.90625 248.050781 190.050781 L 248.050781 515.089844 C 248.050781 516.234375 248.984375 517.167969 250.132812 517.167969 L 349.75 517.167969 C 350.898438 517.167969 351.832031 516.234375 351.832031 515.089844 L 351.832031 190.050781 C 351.832031 188.902344 350.898438 187.972656 349.75 187.972656 Z M 349.75 187.972656 " fill-opacity="1" fill-rule="nonzero"/><g clip-path="url(#a9bac0eab3)"><path fill="#130073" d="M 349.75 171.5 L 250.132812 171.5 C 239.90625 171.5 231.582031 179.820312 231.582031 190.050781 L 231.582031 515.085938 C 231.582031 525.3125 239.90625 533.636719 250.132812 533.636719 L 349.753906 533.636719 C 359.980469 533.636719 368.304688 525.3125 368.304688 515.085938 L 368.304688 190.050781 C 368.300781 179.820312 359.980469 171.5 349.75 171.5 Z M 351.832031 515.085938 C 351.832031 516.234375 350.898438 517.164062 349.75 517.164062 L 250.132812 517.164062 C 248.984375 517.164062 248.054688 516.234375 248.054688 515.085938 L 248.054688 190.050781 C 248.054688 188.902344 248.984375 187.96875 250.132812 187.96875 L 349.753906 187.96875 C 350.902344 187.96875 351.835938 188.902344 351.835938 190.050781 L 351.835938 515.085938 Z M 351.832031 515.085938 " fill-opacity="1" fill-rule="nonzero"/></g><path fill="#130073" d="M 420.898438 517.164062 L 520.519531 517.164062 C 521.667969 517.164062 522.601562 516.230469 522.601562 515.085938 L 522.601562 84.847656 C 522.601562 83.703125 521.667969 82.769531 520.519531 82.769531 L 420.898438 82.769531 C 419.753906 82.769531 418.820312 83.703125 418.820312 84.847656 L 418.820312 515.085938 C 418.820312 516.234375 419.753906 517.164062 420.898438 517.164062 Z M 420.898438 517.164062 " fill-opacity="1" fill-rule="nonzero"/><g clip-path="url(#6810a7b77d)"><path fill="#130073" d="M 420.898438 533.636719 L 520.519531 533.636719 C 530.75 533.636719 539.070312 525.3125 539.070312 515.085938 L 539.070312 84.847656 C 539.070312 74.621094 530.75 66.300781 520.519531 66.300781 L 420.898438 66.300781 C 410.671875 66.300781 402.347656 74.621094 402.347656 84.847656 L 402.347656 515.085938 C 402.351562 525.3125 410.671875 533.636719 420.898438 533.636719 Z M 418.820312 84.847656 C 418.820312 83.703125 419.753906 82.769531 420.898438 82.769531 L 520.523438 82.769531 C 521.667969 82.769531 522.601562 83.703125 522.601562 84.847656 L 522.601562 515.085938 C 522.601562 516.234375 521.667969 517.164062 520.523438 517.164062 L 420.898438 517.164062 C 419.753906 517.164062 418.820312 516.234375 418.820312 515.085938 Z M 418.820312 84.847656 " fill-opacity="1" fill-rule="nonzero"/></g></svg>