<svg width="40" height="40" viewBox="0 0 40 40" fill="none" xmlns="http://www.w3.org/2000/svg">
  <path d="M20 0C8.954 0 0 8.954 0 20C0 31.046 8.954 40 20 40C31.046 40 40 31.046 40 20C40 8.954 31.046 0 20 0Z" fill="#0066FF" fill-opacity="0.1"/>
  <path d="M20 5C11.716 5 5 11.716 5 20C5 28.284 11.716 35 20 35C28.284 35 35 28.284 35 20C35 11.716 28.284 5 20 5Z" fill="#0066FF" fill-opacity="0.2"/>
  <path d="M20 10C14.477 10 10 14.477 10 20C10 25.523 14.477 30 20 30C25.523 30 30 25.523 30 20C30 14.477 25.523 10 20 10Z" fill="#0066FF"/>
  <path d="M15 18L20 23L25 18" stroke="white" stroke-width="2" stroke-linecap="round" stroke-linejoin="round"/>
</svg>
