<svg xmlns="http://www.w3.org/2000/svg" xmlns:xlink="http://www.w3.org/1999/xlink" width="600" zoomAndPan="magnify" viewBox="0 0 450 149.999998" height="200" preserveAspectRatio="xMidYMid meet" version="1.2"><defs><clipPath id="52581f65e3"><path d="M 0 12.878906 L 450 12.878906 L 450 136.628906 L 0 136.628906 Z M 0 12.878906 "/></clipPath></defs><g id="e1f846f9e3"><g clip-rule="nonzero" clip-path="url(#52581f65e3)"><path style="fill:none;stroke-width:1;stroke-linecap:butt;stroke-linejoin:miter;stroke:#1d1d1b;stroke-opacity:1;stroke-miterlimit:10;" d="M 1080.503279 539.997467 C 1080.503279 548.83886 1080.283668 557.672119 1079.852579 566.497244 C 1079.413356 575.32237 1078.762656 584.131227 1077.900477 592.931951 C 1077.030166 601.724541 1075.948376 610.49273 1074.655109 619.236518 C 1073.361842 627.972172 1071.848963 636.683425 1070.124607 645.345875 C 1068.400251 654.016459 1066.464417 662.63824 1064.317105 671.211219 C 1062.169793 679.784197 1059.811004 688.30024 1057.248871 696.751212 C 1054.678604 705.210319 1051.913127 713.596221 1048.936172 721.917053 C 1045.959218 730.237886 1042.778919 738.485514 1039.395277 746.651805 C 1036.011634 754.809963 1032.432782 762.886782 1028.650585 770.882264 C 1024.876522 778.869613 1020.907249 786.759356 1016.734633 794.551494 C 1012.57015 802.351766 1008.21859 810.038166 1003.671821 817.618826 C 999.133185 825.199487 994.399339 832.658141 989.494684 840.011056 C 984.581895 847.355838 979.498298 854.578613 974.235758 861.679382 C 968.965084 868.772017 963.531735 875.742646 957.927577 882.575001 C 952.315285 889.407356 946.548452 896.093304 940.610811 902.640977 C 934.681302 909.188651 928.589119 915.589917 922.334261 921.836641 C 916.087536 928.083366 909.68627 934.175549 903.138597 940.113191 C 896.590923 946.050833 889.904976 951.817666 883.072621 957.421824 C 876.240266 963.034115 869.277771 968.467464 862.177002 973.730004 C 855.076233 978.992544 847.853457 984.084276 840.508676 988.997064 C 833.15576 993.901719 825.697106 998.627431 818.116446 1003.174201 C 810.535785 1007.712837 802.849386 1012.07253 795.057247 1016.237013 C 787.256976 1020.401496 779.367232 1024.378903 771.379884 1028.152966 C 763.392536 1031.935162 755.315716 1035.514015 747.149425 1038.897657 C 738.983134 1042.273166 730.743639 1045.453464 722.422807 1048.430419 C 714.101974 1051.407374 705.707938 1054.180985 697.256966 1056.751252 C 688.79786 1059.313385 680.281817 1061.672174 671.708838 1063.819485 C 663.135859 1065.966797 654.514078 1067.902631 645.851628 1069.626987 C 637.181044 1071.351343 628.477925 1072.856088 619.734138 1074.157489 C 610.99035 1075.450756 602.222161 1076.532546 593.429571 1077.402858 C 584.636981 1078.265036 575.819989 1078.915737 566.994864 1079.346826 C 558.169739 1079.786048 549.33648 1079.997526 540.503221 1079.997526 C 531.661828 1079.997526 522.828569 1079.786048 514.003444 1079.346826 C 505.178319 1078.915737 496.369461 1078.265036 487.568737 1077.402858 C 478.776147 1076.532546 470.007958 1075.450756 461.26417 1074.157489 C 452.520382 1072.856088 443.817264 1071.351343 435.154813 1069.626987 C 426.48423 1067.902631 417.862448 1065.966797 409.28947 1063.819485 C 400.716491 1061.672174 392.200448 1059.313385 383.749476 1056.751252 C 375.29037 1054.180985 366.896333 1051.407374 358.575501 1048.430419 C 350.254669 1045.453464 342.015174 1042.273166 333.848883 1038.897657 C 325.682592 1035.514015 317.605772 1031.935162 309.618424 1028.152966 C 301.631076 1024.378903 293.741332 1020.401496 285.949194 1016.237013 C 278.148922 1012.07253 270.462523 1007.712837 262.881862 1003.174201 C 255.301202 998.627431 247.842547 993.901719 240.489632 988.997064 C 233.14485 984.084276 225.922075 978.992544 218.821306 973.730004 C 211.720537 968.467464 204.758042 963.034115 197.925687 957.421824 C 191.093332 951.817666 184.407385 946.050833 177.859711 940.113191 C 171.312037 934.175549 164.910772 928.083366 158.664047 921.836641 C 152.409189 915.589917 146.325139 909.188651 140.387497 902.640977 C 134.449855 896.093304 128.683022 889.407356 123.070731 882.575001 C 117.466573 875.742646 112.033224 868.772017 106.770684 861.679382 C 101.50001 854.578613 96.416413 847.355838 91.503624 840.011056 C 86.598969 832.658141 81.873257 825.199487 77.326487 817.618826 C 72.779718 810.038166 68.428158 802.351766 64.263675 794.551494 C 60.099192 786.759356 56.121785 778.869613 52.347723 770.882264 C 48.565526 762.886782 44.986674 754.809963 41.603031 746.651805 C 38.219389 738.485514 35.047224 730.237886 32.062135 721.917053 C 29.085181 713.596221 26.319704 705.210319 23.749437 696.751212 C 21.187304 688.30024 18.828514 679.784197 16.681203 671.211219 C 14.533891 662.63824 12.598057 654.016459 10.873701 645.345875 C 9.149345 636.683425 7.6446 627.972172 6.343199 619.236518 C 5.049932 610.49273 3.968142 601.724541 3.09783 592.931951 C 2.235652 584.131227 1.584952 575.32237 1.153863 566.497244 C 0.71464 557.672119 0.503162 548.83886 0.503162 539.997467 C 0.503162 531.164208 0.71464 522.330949 1.153863 513.505824 C 1.584952 504.672565 2.235652 495.863708 3.09783 487.071117 C 3.968142 478.278527 5.049932 469.510338 6.343199 460.766551 C 7.6446 452.022763 9.149345 443.319644 10.873701 434.64906 C 12.598057 425.98661 14.533891 417.364829 16.681203 408.79185 C 18.828514 400.218871 21.187304 391.702829 23.749437 383.243722 C 26.319704 374.79275 29.085181 366.398714 32.062135 358.077881 C 35.047224 349.757049 38.219389 341.517554 41.603031 333.351263 C 44.986674 325.184972 48.565526 317.108153 52.347723 309.120804 C 56.121785 301.133456 60.099192 293.243713 64.263675 285.443441 C 68.428158 277.651303 72.779718 269.964903 77.326487 262.384243 C 81.873257 254.803582 86.598969 247.336794 91.503624 239.992012 C 96.416413 232.647231 101.50001 225.424455 106.770684 218.323686 C 112.033224 211.222918 117.466573 204.260422 123.070731 197.428067 C 128.683022 190.595712 134.449855 183.909765 140.387497 177.362091 C 146.325139 170.806284 152.409189 164.413152 158.664047 158.158294 C 164.910772 151.911569 171.312037 145.819386 177.859711 139.889878 C 184.407385 133.952236 191.093332 128.177269 197.925687 122.573111 C 204.758042 116.968953 211.720537 111.535604 218.821306 106.264931 C 225.922075 101.00239 233.14485 95.918793 240.489632 91.006004 C 247.842547 86.093216 255.301202 81.367504 262.881862 76.828868 C 270.462523 72.282098 278.148922 67.930539 285.949194 63.766056 C 293.741332 59.593439 301.631076 55.624166 309.618424 51.841969 C 317.605772 48.067907 325.682592 44.489054 333.848883 41.105411 C 342.015174 37.721769 350.254669 34.54147 358.575501 31.564516 C 366.896333 28.587561 375.29037 25.81395 383.749476 23.251817 C 392.200448 20.689684 400.716491 18.330895 409.28947 16.183583 C 417.862448 14.036272 426.48423 12.100438 435.154813 10.376081 C 443.817264 8.651725 452.520382 7.138847 461.26417 5.845579 C 470.007958 4.544178 478.776147 3.470523 487.568737 2.600211 C 496.369461 1.738033 505.178319 1.087332 514.003444 0.648109 C 522.828569 0.21702 531.661828 -0.00259117 540.503221 -0.00259117 C 549.33648 -0.00259117 558.169739 0.21702 566.994864 0.648109 C 575.819989 1.087332 584.636981 1.738033 593.429571 2.600211 C 602.222161 3.470523 610.99035 4.544178 619.734138 5.845579 C 628.477925 7.138847 637.181044 8.651725 645.851628 10.376081 C 654.514078 12.100438 663.135859 14.036272 671.708838 16.183583 C 680.281817 18.330895 688.79786 20.689684 697.256966 23.251817 C 705.707938 25.81395 714.101974 28.587561 722.422807 31.564516 C 730.743639 34.54147 738.983134 37.721769 747.149425 41.105411 C 755.315716 44.489054 763.392536 48.067907 771.379884 51.841969 C 779.367232 55.624166 787.256976 59.593439 795.057247 63.766056 C 802.849386 67.930539 810.535785 72.282098 818.116446 76.828868 C 825.697106 81.367504 833.15576 86.093216 840.508676 91.006004 C 847.853457 95.918793 855.076233 101.00239 862.177002 106.264931 C 869.277771 111.535604 876.240266 116.968953 883.072621 122.573111 C 889.904976 128.177269 896.590923 133.952236 903.138597 139.889878 C 909.68627 145.819386 916.087536 151.911569 922.334261 158.158294 C 928.589119 164.413152 934.681302 170.806284 940.610811 177.362091 C 946.548452 183.909765 952.315285 190.595712 957.927577 197.428067 C 963.531735 204.260422 968.965084 211.222918 974.235758 218.323686 C 979.498298 225.424455 984.581895 232.647231 989.494684 239.992012 C 994.399339 247.336794 999.133185 254.803582 1003.671821 262.384243 C 1008.21859 269.964903 1012.57015 277.651303 1016.734633 285.443441 C 1020.907249 293.243713 1024.876522 301.133456 1028.650585 309.120804 C 1032.432782 317.108153 1036.011634 325.184972 1039.395277 333.351263 C 1042.778919 341.517554 1045.959218 349.757049 1048.936172 358.077881 C 1051.913127 366.398714 1054.678604 374.79275 1057.248871 383.243722 C 1059.811004 391.702829 1062.169793 400.218871 1064.317105 408.79185 C 1066.464417 417.364829 1068.400251 425.98661 1070.124607 434.64906 C 1071.848963 443.319644 1073.361842 452.022763 1074.655109 460.766551 C 1075.948376 469.510338 1077.030166 478.278527 1077.900477 487.071117 C 1078.762656 495.863708 1079.413356 504.672565 1079.852579 513.505824 C 1080.283668 522.330949 1080.503279 531.164208 1080.503279 539.997467 Z M 1080.503279 539.997467 " transform="matrix(0.480252,0,0,0.480252,-38.862738,-184.487037)"/></g><path style=" stroke:none;fill-rule:nonzero;fill:#ffffff;fill-opacity:1;" d="M 179.652344 55.015625 L 185.894531 55.015625 L 202.070312 91.210938 L 195.347656 91.210938 L 190.3125 80.078125 L 175.328125 80.019531 L 170.390625 91.210938 L 163.667969 91.210938 Z M 188.042969 74.980469 L 182.757812 63.242188 L 177.585938 74.980469 Z M 188.042969 74.980469 "/><path style=" stroke:none;fill-rule:nonzero;fill:#ffffff;fill-opacity:1;" d="M 205.253906 55.453125 C 205.621094 55.203125 206.019531 55.011719 206.445312 54.882812 C 206.871094 54.753906 207.304688 54.6875 207.75 54.6875 C 208.195312 54.6875 208.632812 54.753906 209.058594 54.882812 C 209.484375 55.011719 209.878906 55.203125 210.25 55.453125 C 210.582031 55.667969 210.84375 55.953125 211.035156 56.304688 C 211.222656 56.65625 211.316406 57.03125 211.316406 57.429688 C 211.320312 57.835938 211.226562 58.21875 211.039062 58.578125 C 210.851562 58.9375 210.585938 59.230469 210.25 59.457031 C 209.878906 59.707031 209.484375 59.898438 209.058594 60.027344 C 208.632812 60.160156 208.195312 60.226562 207.75 60.226562 C 207.304688 60.226562 206.871094 60.160156 206.445312 60.027344 C 206.019531 59.898438 205.621094 59.707031 205.253906 59.457031 C 204.917969 59.230469 204.652344 58.9375 204.464844 58.578125 C 204.273438 58.21875 204.183594 57.835938 204.1875 57.429688 C 204.183594 57.03125 204.277344 56.65625 204.46875 56.304688 C 204.65625 55.953125 204.917969 55.667969 205.253906 55.453125 Z M 204.515625 63.40625 L 210.929688 63.40625 L 210.929688 91.210938 L 204.515625 91.210938 Z M 204.515625 63.40625 "/><path style=" stroke:none;fill-rule:nonzero;fill:#ffffff;fill-opacity:1;" d="M 215.429688 63.40625 L 221.847656 63.40625 L 221.847656 70.152344 C 222.21875 69.03125 222.78125 68.007812 223.523438 67.085938 C 224.269531 66.167969 225.148438 65.40625 226.167969 64.808594 C 228.324219 63.476562 230.667969 62.820312 233.199219 62.84375 C 235.652344 62.804688 237.945312 63.386719 240.082031 64.59375 C 242.171875 65.8125 243.773438 67.492188 244.882812 69.644531 C 246.125 72.089844 246.710938 74.6875 246.640625 77.433594 L 246.640625 91.195312 L 240.214844 91.195312 L 240.214844 77.390625 C 240.265625 75.621094 239.875 73.957031 239.039062 72.398438 C 238.28125 71.023438 237.199219 69.972656 235.804688 69.25 C 234.382812 68.515625 232.875 68.160156 231.277344 68.179688 C 229.664062 68.164062 228.136719 68.53125 226.703125 69.273438 C 225.269531 70.003906 224.148438 71.066406 223.339844 72.457031 C 222.472656 73.988281 222.0625 75.632812 222.105469 77.390625 L 222.105469 91.210938 L 215.429688 91.210938 Z M 215.429688 63.40625 "/><path style=" stroke:none;fill-rule:nonzero;fill:#ffffff;fill-opacity:1;" d="M 250.25 63.40625 L 256.664062 63.40625 L 256.664062 70.152344 C 257.039062 69.03125 257.597656 68.007812 258.34375 67.089844 C 259.085938 66.167969 259.96875 65.410156 260.988281 64.808594 C 263.140625 63.476562 265.484375 62.820312 268.019531 62.84375 C 270.472656 62.804688 272.765625 63.386719 274.898438 64.59375 C 276.992188 65.808594 278.59375 67.492188 279.703125 69.644531 C 280.949219 72.097656 281.535156 74.695312 281.464844 77.445312 L 281.464844 91.210938 L 275.042969 91.210938 L 275.042969 77.390625 C 275.09375 75.621094 274.699219 73.957031 273.863281 72.398438 C 273.101562 71.023438 272.023438 69.972656 270.625 69.25 C 269.207031 68.515625 267.699219 68.160156 266.101562 68.179688 C 264.484375 68.164062 262.960938 68.53125 261.523438 69.273438 C 260.09375 70.007812 258.972656 71.070312 258.164062 72.457031 C 257.296875 73.988281 256.886719 75.632812 256.929688 77.390625 L 256.929688 91.210938 L 250.25 91.210938 Z M 250.25 63.40625 "/><path style=" stroke:none;fill-rule:nonzero;fill:#ffffff;fill-opacity:1;" d="M 292.703125 89.894531 C 290.378906 88.683594 288.523438 86.964844 287.136719 84.738281 C 285.726562 82.472656 285.042969 80.003906 285.082031 77.335938 C 285.023438 74.601562 285.699219 72.058594 287.109375 69.714844 C 288.464844 67.5 290.300781 65.808594 292.621094 64.640625 C 295.078125 63.40625 297.683594 62.804688 300.433594 62.84375 C 303.210938 62.800781 305.84375 63.394531 308.332031 64.625 C 310.660156 65.789062 312.507812 67.480469 313.871094 69.699219 C 315.28125 72.046875 315.957031 74.585938 315.898438 77.320312 C 315.917969 78.613281 315.757812 79.882812 315.421875 81.132812 C 315.089844 82.378906 314.589844 83.558594 313.925781 84.667969 C 313.261719 85.777344 312.460938 86.773438 311.519531 87.660156 C 310.578125 88.546875 309.535156 89.285156 308.386719 89.878906 C 305.894531 91.171875 303.242188 91.792969 300.433594 91.746094 C 297.703125 91.78125 295.125 91.164062 292.703125 89.894531 Z M 292.703125 82 C 293.488281 83.378906 294.566406 84.464844 295.941406 85.261719 C 297.3125 86.0625 298.792969 86.457031 300.382812 86.441406 C 302 86.457031 303.515625 86.070312 304.929688 85.289062 C 306.328125 84.527344 307.425781 83.457031 308.226562 82.082031 C 309.058594 80.628906 309.460938 79.0625 309.429688 77.390625 C 309.460938 75.695312 309.066406 74.105469 308.25 72.621094 C 307.46875 71.226562 306.382812 70.136719 304.988281 69.355469 C 303.558594 68.554688 302.023438 68.160156 300.382812 68.179688 C 298.777344 68.160156 297.277344 68.542969 295.882812 69.332031 C 294.507812 70.105469 293.4375 71.183594 292.675781 72.5625 C 291.855469 74.058594 291.464844 75.660156 291.496094 77.367188 C 291.472656 79.019531 291.875 80.566406 292.703125 82 Z M 292.703125 82 "/><path style=" stroke:none;fill-rule:nonzero;fill:#ffffff;fill-opacity:1;" d="M 315.082031 63.40625 L 321.5 63.40625 L 329.945312 84.246094 L 338.390625 63.40625 L 344.808594 63.40625 L 333.015625 91.210938 L 326.925781 91.210938 Z M 315.082031 63.40625 "/><path style=" stroke:none;fill-rule:nonzero;fill:#ffffff;fill-opacity:1;" d="M 351.851562 89.835938 C 349.730469 88.5625 348.085938 86.832031 346.914062 84.65625 C 345.699219 82.410156 345.105469 80.007812 345.132812 77.453125 C 345.0625 74.707031 345.648438 72.113281 346.886719 69.664062 C 347.996094 67.511719 349.59375 65.828125 351.6875 64.613281 C 353.820312 63.402344 356.113281 62.808594 358.570312 62.84375 C 361.097656 62.816406 363.433594 63.46875 365.585938 64.792969 C 366.605469 65.394531 367.488281 66.152344 368.230469 67.074219 C 368.976562 67.992188 369.535156 69.015625 369.910156 70.136719 L 369.910156 63.40625 L 376.324219 63.40625 L 376.324219 91.210938 L 369.921875 91.210938 L 369.921875 84.359375 C 369.546875 85.464844 368.996094 86.476562 368.269531 87.394531 C 367.542969 88.3125 366.6875 89.082031 365.695312 89.703125 C 363.640625 91.082031 361.371094 91.765625 358.894531 91.757812 C 356.363281 91.789062 354.015625 91.148438 351.851562 89.835938 Z M 352.78125 82.023438 C 353.589844 83.390625 354.6875 84.460938 356.070312 85.230469 C 357.441406 86.007812 358.914062 86.390625 360.484375 86.382812 C 362.09375 86.390625 363.605469 86.007812 365.015625 85.230469 C 366.425781 84.464844 367.542969 83.394531 368.375 82.023438 C 369.242188 80.601562 369.660156 79.054688 369.632812 77.390625 C 369.679688 75.636719 369.261719 74 368.390625 72.480469 C 367.578125 71.089844 366.457031 70.019531 365.027344 69.273438 C 363.601562 68.527344 362.085938 68.164062 360.476562 68.179688 C 359.292969 68.140625 358.144531 68.335938 357.039062 68.757812 C 355.929688 69.179688 354.949219 69.800781 354.089844 70.617188 C 352.390625 72.246094 351.539062 74.503906 351.539062 77.390625 C 351.515625 79.050781 351.933594 80.597656 352.78125 82.023438 Z M 352.78125 82.023438 "/><path style=" stroke:none;fill-rule:nonzero;fill:#ffffff;fill-opacity:1;" d="M 395.476562 91.542969 C 393.542969 91.558594 391.707031 91.144531 389.964844 90.308594 C 388.246094 89.480469 386.882812 88.253906 385.882812 86.628906 C 384.78125 84.777344 384.269531 82.777344 384.34375 80.625 L 384.34375 68.726562 L 379.957031 68.726562 L 379.957031 63.128906 C 380.972656 63.195312 381.929688 62.996094 382.835938 62.53125 C 383.484375 62.136719 383.894531 61.570312 384.070312 60.832031 C 384.28125 59.816406 384.371094 58.792969 384.34375 57.757812 L 384.34375 55.015625 L 390.761719 55.015625 L 390.8125 63.128906 L 398.824219 63.128906 L 398.824219 68.726562 L 390.761719 68.726562 L 390.761719 79.914062 C 390.761719 81.707031 391.289062 83.117188 392.351562 84.136719 C 392.894531 84.65625 393.519531 85.046875 394.226562 85.3125 C 394.929688 85.578125 395.65625 85.699219 396.410156 85.671875 C 397.59375 85.648438 398.726562 85.390625 399.808594 84.90625 L 400.902344 90.441406 C 399.167969 91.175781 397.359375 91.539062 395.476562 91.542969 Z M 395.476562 91.542969 "/><path style=" stroke:none;fill-rule:nonzero;fill:#ffffff;fill-opacity:1;" d="M 409.515625 89.949219 C 407.234375 88.742188 405.414062 87.042969 404.058594 84.847656 C 402.648438 82.5625 401.964844 80.074219 402.007812 77.390625 C 401.9375 74.589844 402.609375 71.980469 404.03125 69.566406 C 405.351562 67.386719 407.152344 65.722656 409.433594 64.578125 C 411.753906 63.40625 414.210938 62.828125 416.808594 62.84375 C 419.269531 62.8125 421.597656 63.34375 423.800781 64.433594 C 425.929688 65.5 427.640625 67.035156 428.929688 69.039062 C 430.320312 71.242188 431.105469 73.644531 431.289062 76.242188 C 431.355469 76.660156 431.390625 77.078125 431.398438 77.5 C 431.386719 77.921875 431.347656 78.34375 431.289062 78.761719 L 408.089844 78.816406 C 408.21875 80.289062 408.730469 81.613281 409.625 82.792969 C 410.496094 83.929688 411.570312 84.820312 412.851562 85.460938 C 414.132812 86.101562 415.488281 86.429688 416.921875 86.441406 C 418.523438 86.457031 420.042969 86.097656 421.472656 85.371094 C 422.859375 84.671875 423.917969 83.640625 424.652344 82.273438 L 429.480469 84.738281 C 428.226562 86.957031 426.484375 88.679688 424.242188 89.894531 C 423.113281 90.503906 421.925781 90.964844 420.679688 91.277344 C 419.433594 91.59375 418.171875 91.753906 416.886719 91.757812 C 415.601562 91.761719 414.335938 91.613281 413.089844 91.304688 C 411.84375 91 410.652344 90.546875 409.515625 89.949219 Z M 425.257812 75.089844 C 425.113281 74.085938 424.789062 73.144531 424.28125 72.265625 C 423.773438 71.390625 423.121094 70.636719 422.324219 70.011719 C 421.5625 69.386719 420.71875 68.910156 419.789062 68.582031 C 418.859375 68.25 417.90625 68.089844 416.921875 68.089844 C 415.921875 68.082031 414.953125 68.242188 414.011719 68.574219 C 413.066406 68.902344 412.210938 69.382812 411.4375 70.011719 C 410.636719 70.652344 409.988281 71.414062 409.488281 72.308594 C 408.992188 73.199219 408.679688 74.152344 408.554688 75.164062 Z M 425.257812 75.089844 "/><path style=" stroke:none;fill-rule:nonzero;fill:#ffffff;fill-opacity:1;" d="M 140.453125 111.15625 C 139.691406 110.703125 139.09375 110.085938 138.664062 109.3125 C 138.21875 108.523438 138 107.679688 138.007812 106.777344 C 138 105.863281 138.21875 105.003906 138.664062 104.207031 C 139.089844 103.421875 139.6875 102.796875 140.453125 102.339844 C 141.234375 101.871094 142.078125 101.640625 142.988281 101.652344 C 143.886719 101.644531 144.71875 101.871094 145.484375 102.332031 C 146.253906 102.789062 146.847656 103.414062 147.269531 104.207031 C 147.699219 105.007812 147.910156 105.867188 147.902344 106.777344 C 147.910156 107.679688 147.691406 108.523438 147.25 109.3125 C 146.816406 110.082031 146.222656 110.699219 145.46875 111.15625 C 144.699219 111.621094 143.863281 111.851562 142.964844 111.84375 C 142.0625 111.847656 141.226562 111.621094 140.453125 111.15625 Z M 139.558594 108.855469 C 139.890625 109.488281 140.363281 109.988281 140.972656 110.355469 C 141.585938 110.722656 142.246094 110.910156 142.960938 110.910156 C 143.675781 110.910156 144.335938 110.722656 144.945312 110.355469 C 145.558594 109.988281 146.027344 109.488281 146.359375 108.855469 C 146.710938 108.207031 146.878906 107.511719 146.871094 106.777344 C 146.886719 106.007812 146.714844 105.285156 146.351562 104.605469 C 146.019531 103.992188 145.554688 103.511719 144.949219 103.164062 C 144.351562 102.832031 143.710938 102.671875 143.027344 102.683594 C 142.324219 102.671875 141.664062 102.832031 141.042969 103.164062 C 140.425781 103.507812 139.945312 103.988281 139.605469 104.605469 C 139.230469 105.285156 139.050781 106.015625 139.066406 106.789062 C 139.054688 107.519531 139.21875 108.210938 139.558594 108.855469 Z M 141.128906 103.890625 L 143.261719 103.890625 C 143.863281 103.816406 144.394531 103.976562 144.851562 104.371094 C 145.167969 104.71875 145.320312 105.125 145.308594 105.59375 C 145.324219 106.007812 145.214844 106.382812 144.984375 106.722656 C 144.699219 107.066406 144.335938 107.238281 143.890625 107.238281 L 143.492188 107.238281 L 144.933594 109.519531 L 144.027344 109.519531 L 142.585938 107.238281 L 141.953125 107.238281 L 141.953125 109.519531 L 141.128906 109.519531 Z M 143.261719 106.589844 C 144.074219 106.589844 144.484375 106.265625 144.484375 105.628906 C 144.496094 105.339844 144.398438 105.097656 144.191406 104.898438 C 143.917969 104.679688 143.609375 104.585938 143.261719 104.613281 L 141.953125 104.613281 L 141.953125 106.597656 Z M 143.261719 106.589844 "/><path style=" stroke:none;fill-rule:nonzero;fill:#ffffff;fill-opacity:1;" d="M 67.335938 87.214844 L 73.785156 87.214844 C 74.363281 87.214844 74.933594 87.273438 75.496094 87.382812 C 76.0625 87.496094 76.613281 87.664062 77.144531 87.882812 C 77.675781 88.105469 78.183594 88.375 78.664062 88.695312 C 79.140625 89.015625 79.585938 89.378906 79.992188 89.785156 C 80.398438 90.195312 80.765625 90.636719 81.085938 91.117188 C 81.40625 91.597656 81.675781 92.101562 81.894531 92.632812 C 82.117188 93.167969 82.28125 93.714844 82.394531 94.28125 C 82.507812 94.847656 82.5625 95.417969 82.5625 95.996094 L 82.5625 102.445312 C 82.5625 103.019531 82.507812 103.589844 82.394531 104.15625 C 82.28125 104.722656 82.117188 105.269531 81.894531 105.804688 C 81.675781 106.335938 81.40625 106.84375 81.085938 107.320312 C 80.765625 107.800781 80.398438 108.246094 79.992188 108.652344 C 79.585938 109.058594 79.140625 109.421875 78.664062 109.742188 C 78.183594 110.0625 77.675781 110.335938 77.144531 110.554688 C 76.613281 110.777344 76.0625 110.941406 75.496094 111.054688 C 74.933594 111.167969 74.363281 111.222656 73.785156 111.222656 L 67.335938 111.222656 C 66.757812 111.222656 66.1875 111.167969 65.621094 111.054688 C 65.058594 110.941406 64.507812 110.777344 63.976562 110.554688 C 63.441406 110.335938 62.9375 110.0625 62.457031 109.742188 C 61.980469 109.421875 61.535156 109.058594 61.128906 108.652344 C 60.71875 108.246094 60.355469 107.800781 60.035156 107.320312 C 59.714844 106.84375 59.445312 106.335938 59.222656 105.804688 C 59.003906 105.269531 58.835938 104.722656 58.726562 104.15625 C 58.613281 103.589844 58.554688 103.019531 58.554688 102.445312 L 58.554688 95.996094 C 58.554688 95.417969 58.613281 94.847656 58.726562 94.28125 C 58.835938 93.714844 59.003906 93.167969 59.222656 92.632812 C 59.445312 92.101562 59.714844 91.597656 60.035156 91.117188 C 60.355469 90.636719 60.71875 90.195312 61.128906 89.785156 C 61.535156 89.378906 61.980469 89.015625 62.457031 88.695312 C 62.9375 88.375 63.441406 88.105469 63.976562 87.882812 C 64.507812 87.664062 65.058594 87.496094 65.621094 87.382812 C 66.1875 87.273438 66.757812 87.214844 67.335938 87.214844 Z M 67.335938 87.214844 "/><path style=" stroke:none;fill-rule:nonzero;fill:#ffffff;fill-opacity:1;" d="M 73.828125 38.828125 L 67.382812 38.828125 C 66.808594 38.832031 66.234375 38.886719 65.671875 39 C 65.105469 39.113281 64.558594 39.28125 64.023438 39.5 C 63.492188 39.722656 62.984375 39.992188 62.507812 40.3125 C 62.027344 40.632812 61.585938 40.996094 61.175781 41.402344 C 60.769531 41.8125 60.40625 42.253906 60.085938 42.734375 C 59.765625 43.210938 59.492188 43.71875 59.273438 44.25 C 59.050781 44.78125 58.882812 45.332031 58.769531 45.898438 C 58.65625 46.460938 58.601562 47.03125 58.597656 47.609375 L 58.597656 53.765625 C 58.597656 54.371094 58.535156 54.96875 58.417969 55.558594 C 58.300781 56.152344 58.125 56.726562 57.898438 57.285156 C 57.667969 57.84375 57.386719 58.375 57.058594 58.878906 C 56.726562 59.382812 56.347656 59.851562 55.925781 60.28125 C 55.503906 60.714844 55.046875 61.101562 54.550781 61.445312 C 54.054688 61.789062 53.527344 62.082031 52.976562 62.324219 C 52.421875 62.566406 51.851562 62.75 51.261719 62.882812 C 50.675781 63.015625 50.078125 63.089844 49.476562 63.105469 L 43.09375 63.105469 C 42.515625 63.105469 41.945312 63.164062 41.378906 63.277344 C 40.8125 63.390625 40.265625 63.558594 39.734375 63.777344 C 39.199219 64 38.695312 64.269531 38.214844 64.589844 C 37.738281 64.910156 37.292969 65.273438 36.886719 65.683594 C 36.476562 66.089844 36.113281 66.535156 35.792969 67.011719 C 35.472656 67.492188 35.203125 68 34.984375 68.53125 C 34.761719 69.0625 34.59375 69.613281 34.484375 70.179688 C 34.371094 70.742188 34.3125 71.3125 34.3125 71.890625 L 34.3125 78.050781 C 34.3125 78.664062 34.253906 79.273438 34.132812 79.875 C 34.011719 80.476562 33.835938 81.058594 33.597656 81.628906 C 33.363281 82.195312 33.078125 82.730469 32.734375 83.242188 C 32.394531 83.753906 32.007812 84.222656 31.574219 84.65625 C 31.140625 85.089844 30.667969 85.480469 30.15625 85.820312 C 29.648438 86.160156 29.109375 86.449219 28.542969 86.683594 C 27.976562 86.917969 27.390625 87.097656 26.789062 87.214844 C 26.1875 87.335938 25.582031 87.398438 24.96875 87.398438 L 18.804688 87.398438 C 18.230469 87.398438 17.660156 87.457031 17.09375 87.566406 C 16.527344 87.679688 15.980469 87.847656 15.449219 88.070312 C 14.914062 88.289062 14.410156 88.558594 13.929688 88.878906 C 13.453125 89.199219 13.007812 89.566406 12.601562 89.972656 C 12.195312 90.378906 11.828125 90.824219 11.507812 91.300781 C 11.1875 91.78125 10.917969 92.285156 10.699219 92.820312 C 10.476562 93.351562 10.308594 93.898438 10.195312 94.464844 C 10.085938 95.03125 10.027344 95.601562 10.027344 96.175781 L 10.027344 102.625 C 10.027344 103.203125 10.085938 103.773438 10.195312 104.339844 C 10.308594 104.902344 10.476562 105.453125 10.699219 105.984375 C 10.917969 106.515625 11.1875 107.023438 11.507812 107.5 C 11.828125 107.980469 12.195312 108.425781 12.601562 108.832031 C 13.007812 109.238281 13.453125 109.601562 13.929688 109.921875 C 14.410156 110.242188 14.914062 110.515625 15.449219 110.734375 C 15.980469 110.957031 16.527344 111.121094 17.09375 111.234375 C 17.660156 111.347656 18.230469 111.40625 18.804688 111.40625 L 25.253906 111.40625 C 25.832031 111.40625 26.402344 111.347656 26.96875 111.234375 C 27.53125 111.121094 28.082031 110.957031 28.613281 110.734375 C 29.144531 110.515625 29.652344 110.242188 30.128906 109.921875 C 30.609375 109.601562 31.054688 109.238281 31.460938 108.832031 C 31.867188 108.425781 32.230469 107.980469 32.550781 107.5 C 32.871094 107.023438 33.144531 106.515625 33.363281 105.984375 C 33.585938 105.453125 33.75 104.902344 33.863281 104.339844 C 33.976562 103.773438 34.035156 103.203125 34.035156 102.625 L 34.035156 96.460938 C 34.039062 95.855469 34.097656 95.257812 34.214844 94.667969 C 34.335938 94.074219 34.507812 93.5 34.738281 92.941406 C 34.964844 92.382812 35.246094 91.851562 35.578125 91.347656 C 35.910156 90.84375 36.285156 90.375 36.707031 89.945312 C 37.128906 89.511719 37.589844 89.125 38.085938 88.78125 C 38.582031 88.4375 39.105469 88.144531 39.660156 87.902344 C 40.210938 87.660156 40.78125 87.472656 41.371094 87.34375 C 41.960938 87.210938 42.554688 87.136719 43.160156 87.121094 L 49.523438 87.121094 C 50.097656 87.117188 50.671875 87.0625 51.234375 86.949219 C 51.800781 86.835938 52.347656 86.667969 52.882812 86.449219 C 53.414062 86.226562 53.921875 85.957031 54.398438 85.636719 C 54.878906 85.316406 55.320312 84.953125 55.730469 84.542969 C 56.136719 84.136719 56.5 83.691406 56.820312 83.210938 C 57.140625 82.734375 57.410156 82.226562 57.632812 81.695312 C 57.851562 81.164062 58.019531 80.613281 58.132812 80.046875 C 58.246094 79.484375 58.300781 78.910156 58.300781 78.335938 L 58.300781 72.175781 C 58.304688 71.558594 58.363281 70.953125 58.484375 70.351562 C 58.605469 69.75 58.785156 69.164062 59.023438 68.597656 C 59.257812 68.03125 59.546875 67.496094 59.890625 66.984375 C 60.230469 66.476562 60.617188 66.003906 61.054688 65.570312 C 61.488281 65.136719 61.960938 64.75 62.472656 64.410156 C 62.984375 64.070312 63.523438 63.785156 64.089844 63.550781 C 64.65625 63.316406 65.242188 63.140625 65.84375 63.019531 C 66.445312 62.902344 67.054688 62.84375 67.667969 62.84375 L 73.828125 62.84375 C 74.40625 62.84375 74.976562 62.785156 75.539062 62.671875 C 76.105469 62.558594 76.652344 62.390625 77.1875 62.171875 C 77.71875 61.949219 78.222656 61.679688 78.703125 61.359375 C 79.183594 61.039062 79.625 60.675781 80.035156 60.269531 C 80.441406 59.859375 80.804688 59.417969 81.125 58.9375 C 81.445312 58.460938 81.714844 57.953125 81.9375 57.421875 C 82.15625 56.890625 82.324219 56.339844 82.4375 55.777344 C 82.550781 55.210938 82.605469 54.640625 82.605469 54.0625 L 82.605469 47.597656 C 82.605469 47.023438 82.546875 46.453125 82.433594 45.890625 C 82.320312 45.324219 82.15625 44.777344 81.933594 44.246094 C 81.710938 43.710938 81.441406 43.207031 81.121094 42.730469 C 80.800781 42.25 80.4375 41.808594 80.03125 41.402344 C 79.621094 40.992188 79.179688 40.628906 78.699219 40.308594 C 78.222656 39.992188 77.714844 39.71875 77.183594 39.5 C 76.652344 39.28125 76.105469 39.113281 75.539062 39 C 74.972656 38.886719 74.402344 38.832031 73.828125 38.828125 Z M 73.828125 38.828125 "/><path style=" stroke:none;fill-rule:nonzero;fill:#ffffff;fill-opacity:1;" d="M 83.121094 71.886719 C 83.121094 71.308594 83.179688 70.738281 83.292969 70.175781 C 83.402344 69.609375 83.570312 69.0625 83.792969 68.527344 C 84.011719 67.996094 84.28125 67.492188 84.601562 67.011719 C 84.921875 66.53125 85.285156 66.089844 85.695312 65.683594 C 86.101562 65.273438 86.542969 64.910156 87.023438 64.589844 C 87.5 64.269531 88.007812 64 88.539062 63.777344 C 89.070312 63.558594 89.621094 63.390625 90.183594 63.277344 C 90.75 63.164062 91.320312 63.109375 91.894531 63.105469 L 98.34375 63.105469 C 98.921875 63.105469 99.492188 63.164062 100.058594 63.277344 C 100.621094 63.390625 101.171875 63.558594 101.703125 63.777344 C 102.234375 64 102.742188 64.269531 103.21875 64.589844 C 103.699219 64.910156 104.140625 65.273438 104.550781 65.679688 C 104.957031 66.089844 105.320312 66.53125 105.640625 67.011719 C 105.960938 67.488281 106.234375 67.996094 106.453125 68.527344 C 106.675781 69.058594 106.839844 69.609375 106.953125 70.171875 C 107.066406 70.738281 107.125 71.308594 107.125 71.886719 L 107.125 78.046875 C 107.125 78.660156 107.183594 79.269531 107.304688 79.871094 C 107.425781 80.472656 107.601562 81.058594 107.839844 81.625 C 108.074219 82.191406 108.363281 82.730469 108.703125 83.238281 C 109.042969 83.75 109.433594 84.222656 109.867188 84.65625 C 110.300781 85.089844 110.773438 85.476562 111.28125 85.816406 C 111.792969 86.15625 112.332031 86.445312 112.898438 86.679688 C 113.464844 86.914062 114.050781 87.09375 114.652344 87.210938 C 115.253906 87.332031 115.859375 87.394531 116.476562 87.394531 L 122.632812 87.394531 C 123.207031 87.394531 123.777344 87.453125 124.339844 87.566406 C 124.902344 87.679688 125.453125 87.847656 125.980469 88.070312 C 126.511719 88.292969 127.015625 88.5625 127.496094 88.882812 C 127.972656 89.203125 128.414062 89.566406 128.820312 89.976562 C 129.226562 90.382812 129.589844 90.824219 129.910156 91.304688 C 130.226562 91.78125 130.496094 92.289062 130.71875 92.820312 C 130.9375 93.351562 131.105469 93.898438 131.21875 94.464844 C 131.328125 95.027344 131.386719 95.597656 131.386719 96.171875 L 131.386719 102.621094 C 131.386719 103.199219 131.328125 103.769531 131.214844 104.332031 C 131.101562 104.898438 130.9375 105.449219 130.714844 105.980469 C 130.496094 106.511719 130.222656 107.019531 129.902344 107.496094 C 129.582031 107.976562 129.21875 108.417969 128.8125 108.828125 C 128.40625 109.234375 127.960938 109.597656 127.484375 109.917969 C 127.003906 110.238281 126.496094 110.507812 125.964844 110.730469 C 125.433594 110.949219 124.882812 111.117188 124.320312 111.230469 C 123.753906 111.34375 123.183594 111.398438 122.609375 111.402344 L 116.164062 111.402344 C 115.585938 111.398438 115.015625 111.34375 114.449219 111.230469 C 113.886719 111.117188 113.335938 110.949219 112.804688 110.730469 C 112.273438 110.507812 111.765625 110.238281 111.289062 109.917969 C 110.808594 109.597656 110.363281 109.234375 109.957031 108.828125 C 109.550781 108.417969 109.1875 107.976562 108.867188 107.496094 C 108.546875 107.019531 108.273438 106.511719 108.054688 105.980469 C 107.832031 105.449219 107.667969 104.898438 107.554688 104.332031 C 107.441406 103.769531 107.382812 103.199219 107.382812 102.621094 L 107.382812 96.460938 C 107.378906 95.855469 107.320312 95.257812 107.203125 94.667969 C 107.082031 94.074219 106.910156 93.5 106.679688 92.941406 C 106.449219 92.382812 106.171875 91.851562 105.839844 91.347656 C 105.507812 90.84375 105.132812 90.375 104.710938 89.945312 C 104.289062 89.511719 103.828125 89.125 103.332031 88.78125 C 102.835938 88.441406 102.3125 88.148438 101.757812 87.90625 C 101.207031 87.664062 100.636719 87.476562 100.046875 87.34375 C 99.457031 87.210938 98.863281 87.136719 98.257812 87.121094 L 91.871094 87.121094 C 91.296875 87.117188 90.726562 87.058594 90.164062 86.945312 C 89.597656 86.828125 89.050781 86.660156 88.519531 86.441406 C 87.992188 86.21875 87.484375 85.945312 87.007812 85.625 C 86.53125 85.304688 86.089844 84.941406 85.683594 84.535156 C 85.277344 84.125 84.914062 83.683594 84.597656 83.203125 C 84.277344 82.726562 84.007812 82.21875 83.789062 81.6875 C 83.566406 81.15625 83.402344 80.609375 83.289062 80.042969 C 83.179688 79.480469 83.121094 78.910156 83.121094 78.335938 Z M 83.121094 71.886719 "/></g></svg>