<svg xmlns="http://www.w3.org/2000/svg" xmlns:xlink="http://www.w3.org/1999/xlink" width="800" zoomAndPan="magnify" viewBox="0 0 600 599.999999" height="800" preserveAspectRatio="xMidYMid meet" version="1.0"><defs><clipPath id="a5de6f87b3"><path d="M 13.007812 12.167969 L 589.007812 12.167969 L 589.007812 588.167969 L 13.007812 588.167969 Z M 13.007812 12.167969 " clip-rule="nonzero"/></clipPath></defs><g clip-path="url(#a5de6f87b3)"><path fill="#ffffff" d="M 142.582031 12.167969 L 459.09375 12.167969 C 494.863281 12.167969 527.257812 26.675781 550.875 50.296875 C 574.160156 73.582031 589.007812 106.3125 589.007812 141.742188 L 589.007812 458.253906 C 589.007812 494.023438 574.160156 526.417969 550.875 550.039062 C 527.257812 573.320312 494.863281 588.167969 459.09375 588.167969 L 142.582031 588.167969 C 107.152344 588.167969 74.421875 573.320312 51.136719 550.039062 C 27.515625 526.417969 13.007812 494.023438 13.007812 458.253906 L 13.007812 141.742188 C 13.007812 106.3125 27.515625 73.582031 51.136719 50.296875 C 74.421875 26.675781 107.152344 12.167969 142.582031 12.167969 Z M 459.09375 63.457031 L 142.582031 63.457031 C 120.984375 63.457031 101.414062 72.230469 87.242188 86.402344 C 73.070312 100.574219 64.296875 120.148438 64.296875 141.742188 L 64.296875 458.253906 C 64.296875 479.851562 73.070312 499.421875 87.242188 513.59375 C 101.414062 528.105469 120.984375 536.878906 142.582031 536.878906 L 459.09375 536.878906 C 480.691406 536.878906 500.261719 528.105469 514.433594 513.59375 C 528.945312 499.421875 537.71875 479.851562 537.71875 458.253906 L 537.71875 141.742188 C 537.71875 120.148438 528.945312 100.574219 514.433594 86.402344 C 500.261719 72.230469 480.691406 63.457031 459.09375 63.457031 Z M 459.09375 63.457031 " fill-opacity="1" fill-rule="nonzero"/></g><path fill="#ffffff" d="M 462.46875 112.722656 C 469.554688 112.722656 476.304688 115.421875 480.691406 120.148438 C 485.414062 124.871094 488.453125 131.28125 488.453125 138.367188 C 488.453125 145.453125 485.414062 152.203125 480.691406 156.589844 C 476.304688 161.3125 469.554688 164.351562 462.46875 164.351562 C 455.382812 164.351562 448.972656 161.3125 444.246094 156.589844 C 439.523438 152.203125 436.824219 145.453125 436.824219 138.367188 C 436.824219 131.28125 439.523438 124.871094 444.246094 120.148438 C 448.972656 115.421875 455.382812 112.722656 462.46875 112.722656 Z M 462.46875 112.722656 " fill-opacity="1" fill-rule="nonzero"/><path fill="#ffffff" d="M 300.839844 160.300781 C 339.644531 160.300781 374.398438 176.160156 399.707031 201.132812 C 425.015625 226.4375 440.875 261.53125 440.875 300 C 440.875 338.804688 425.015625 373.558594 399.707031 398.867188 C 374.398438 424.175781 339.644531 440.035156 300.839844 440.035156 C 262.371094 440.035156 227.277344 424.175781 201.96875 398.867188 C 177 373.558594 161.140625 338.804688 161.140625 300 C 161.140625 261.53125 177 226.4375 201.96875 201.132812 C 227.277344 176.160156 262.371094 160.300781 300.839844 160.300781 Z M 363.261719 237.910156 C 347.402344 222.050781 325.132812 211.929688 300.839844 211.929688 C 276.542969 211.929688 254.609375 222.050781 238.75 237.910156 C 222.890625 253.769531 212.769531 275.703125 212.769531 300 C 212.769531 324.292969 222.890625 346.566406 238.75 362.425781 C 254.609375 378.285156 276.542969 388.070312 300.839844 388.070312 C 325.132812 388.070312 347.402344 378.285156 363.261719 362.425781 C 379.121094 346.566406 388.910156 324.292969 388.910156 300 C 388.910156 275.703125 379.121094 253.769531 363.261719 237.910156 Z M 363.261719 237.910156 " fill-opacity="1" fill-rule="nonzero"/></svg>