<svg xmlns="http://www.w3.org/2000/svg" xmlns:xlink="http://www.w3.org/1999/xlink" width="800" zoomAndPan="magnify" viewBox="0 0 600 599.999999" height="800" preserveAspectRatio="xMidYMid meet" version="1.0"><defs><clipPath id="02847e1a68"><path d="M 20.980469 20.980469 L 577.480469 20.980469 L 577.480469 577.480469 L 20.980469 577.480469 Z M 20.980469 20.980469 " clip-rule="nonzero"/></clipPath></defs><path fill="#ffffff" d="M 150.78125 222.910156 L 191.960938 222.910156 C 192.480469 222.910156 192.996094 222.960938 193.503906 223.0625 C 194.011719 223.160156 194.503906 223.3125 194.984375 223.511719 C 195.464844 223.707031 195.917969 223.953125 196.351562 224.238281 C 196.78125 224.527344 197.179688 224.855469 197.546875 225.222656 C 197.914062 225.589844 198.242188 225.988281 198.527344 226.417969 C 198.816406 226.851562 199.058594 227.304688 199.257812 227.785156 C 199.457031 228.261719 199.605469 228.757812 199.707031 229.265625 C 199.808594 229.773438 199.859375 230.289062 199.859375 230.804688 L 199.859375 457.320312 C 199.859375 457.839844 199.808594 458.355469 199.707031 458.863281 C 199.605469 459.371094 199.457031 459.863281 199.257812 460.34375 C 199.058594 460.824219 198.816406 461.277344 198.527344 461.710938 C 198.242188 462.140625 197.914062 462.539062 197.546875 462.90625 C 197.179688 463.273438 196.78125 463.601562 196.351562 463.886719 C 195.917969 464.175781 195.464844 464.417969 194.984375 464.617188 C 194.503906 464.816406 194.011719 464.964844 193.503906 465.066406 C 192.996094 465.167969 192.480469 465.21875 191.960938 465.21875 L 150.78125 465.21875 C 150.261719 465.21875 149.746094 465.167969 149.238281 465.066406 C 148.730469 464.964844 148.238281 464.816406 147.757812 464.617188 C 147.277344 464.417969 146.824219 464.175781 146.390625 463.886719 C 145.960938 463.601562 145.5625 463.273438 145.195312 462.90625 C 144.828125 462.539062 144.5 462.140625 144.214844 461.710938 C 143.925781 461.277344 143.683594 460.824219 143.484375 460.34375 C 143.285156 459.863281 143.136719 459.371094 143.035156 458.863281 C 142.933594 458.355469 142.882812 457.839844 142.882812 457.320312 L 142.882812 230.804688 C 142.882812 230.289062 142.933594 229.773438 143.035156 229.265625 C 143.136719 228.757812 143.285156 228.261719 143.484375 227.785156 C 143.683594 227.304688 143.925781 226.851562 144.214844 226.417969 C 144.5 225.988281 144.828125 225.589844 145.195312 225.222656 C 145.5625 224.855469 145.960938 224.527344 146.390625 224.238281 C 146.824219 223.953125 147.277344 223.707031 147.757812 223.511719 C 148.238281 223.3125 148.730469 223.160156 149.238281 223.0625 C 149.746094 222.960938 150.261719 222.910156 150.78125 222.910156 Z M 150.78125 222.910156 " fill-opacity="1" fill-rule="nonzero"/><path fill="#ffffff" d="M 204.542969 167.027344 C 204.480469 147.605469 190.546875 133.519531 171.375 133.519531 C 152.199219 133.519531 137.734375 147.980469 137.734375 167.160156 C 137.734375 176.085938 140.992188 184.382812 146.898438 190.53125 C 152.972656 196.851562 161.332031 200.328125 170.4375 200.328125 C 180.527344 200.328125 189.535156 196.777344 195.800781 190.28125 C 201.671875 184.207031 204.773438 176.003906 204.546875 167.160156 C 204.546875 167.117188 204.542969 167.085938 204.542969 167.027344 Z M 204.542969 167.027344 " fill-opacity="1" fill-rule="nonzero"/><path fill="#ffffff" d="M 430.117188 238.84375 C 409.613281 220.5 385.578125 217.757812 373.078125 217.757812 C 354.398438 217.757812 336.601562 222.75 321.601562 232.195312 C 315.042969 236.324219 309.121094 241.21875 303.832031 246.882812 L 302.796875 230.296875 C 302.765625 229.800781 302.6875 229.308594 302.566406 228.828125 C 302.441406 228.34375 302.273438 227.878906 302.058594 227.425781 C 301.847656 226.976562 301.59375 226.546875 301.300781 226.144531 C 301.007812 225.742188 300.679688 225.371094 300.316406 225.027344 C 299.953125 224.6875 299.558594 224.382812 299.140625 224.117188 C 298.71875 223.851562 298.277344 223.625 297.8125 223.445312 C 297.347656 223.261719 296.871094 223.125 296.382812 223.03125 C 295.890625 222.9375 295.398438 222.890625 294.898438 222.894531 L 258.417969 222.894531 C 257.875 222.894531 257.335938 222.949219 256.804688 223.058594 C 256.273438 223.171875 255.757812 223.335938 255.257812 223.554688 C 254.761719 223.769531 254.289062 224.035156 253.847656 224.351562 C 253.402344 224.664062 252.996094 225.023438 252.628906 225.421875 C 252.257812 225.820312 251.933594 226.25 251.652344 226.714844 C 251.371094 227.183594 251.140625 227.671875 250.964844 228.183594 C 250.785156 228.695312 250.660156 229.222656 250.585938 229.761719 C 250.515625 230.300781 250.5 230.839844 250.542969 231.382812 C 251.835938 248.671875 252.390625 266.832031 252.390625 292.101562 L 252.390625 457.320312 C 252.390625 457.839844 252.441406 458.355469 252.542969 458.863281 C 252.644531 459.371094 252.792969 459.863281 252.992188 460.34375 C 253.191406 460.824219 253.433594 461.277344 253.722656 461.710938 C 254.011719 462.140625 254.335938 462.539062 254.703125 462.90625 C 255.070312 463.273438 255.46875 463.601562 255.902344 463.886719 C 256.332031 464.175781 256.785156 464.417969 257.265625 464.617188 C 257.746094 464.816406 258.238281 464.964844 258.746094 465.066406 C 259.257812 465.167969 259.769531 465.21875 260.289062 465.21875 L 301.472656 465.21875 C 301.992188 465.21875 302.507812 465.167969 303.015625 465.066406 C 303.523438 464.964844 304.015625 464.816406 304.496094 464.617188 C 304.976562 464.417969 305.429688 464.175781 305.863281 463.886719 C 306.292969 463.601562 306.691406 463.273438 307.058594 462.90625 C 307.425781 462.539062 307.753906 462.140625 308.039062 461.710938 C 308.328125 461.277344 308.570312 460.824219 308.769531 460.34375 C 308.96875 459.863281 309.117188 459.371094 309.21875 458.863281 C 309.320312 458.355469 309.371094 457.839844 309.371094 457.320312 L 309.371094 321.132812 C 309.371094 314.730469 310.222656 308.71875 311.707031 304.640625 C 311.75 304.515625 311.792969 304.382812 311.832031 304.246094 C 317.398438 286.082031 334.300781 267.710938 359.507812 267.710938 C 375.109375 267.710938 386.304688 273.046875 393.746094 284.019531 C 400.457031 293.941406 404.011719 308.714844 404.011719 326.738281 L 404.011719 457.320312 C 404.011719 457.839844 404.0625 458.355469 404.164062 458.863281 C 404.265625 459.371094 404.414062 459.863281 404.613281 460.34375 C 404.8125 460.824219 405.054688 461.277344 405.34375 461.710938 C 405.632812 462.140625 405.960938 462.539062 406.324219 462.90625 C 406.691406 463.273438 407.089844 463.601562 407.523438 463.886719 C 407.953125 464.175781 408.410156 464.417969 408.886719 464.617188 C 409.367188 464.816406 409.859375 464.964844 410.371094 465.066406 C 410.878906 465.167969 411.390625 465.21875 411.910156 465.21875 L 453.097656 465.21875 C 453.613281 465.21875 454.128906 465.167969 454.636719 465.066406 C 455.144531 464.964844 455.640625 464.816406 456.117188 464.617188 C 456.597656 464.417969 457.054688 464.175781 457.484375 463.886719 C 457.914062 463.601562 458.3125 463.273438 458.679688 462.90625 C 459.046875 462.539062 459.375 462.140625 459.664062 461.710938 C 459.949219 461.277344 460.195312 460.824219 460.394531 460.34375 C 460.589844 459.863281 460.742188 459.371094 460.84375 458.863281 C 460.945312 458.355469 460.992188 457.839844 460.996094 457.320312 L 460.996094 322.066406 C 460.996094 302.796875 458.078125 285.71875 452.339844 271.304688 C 447.179688 258.339844 439.703125 247.417969 430.117188 238.84375 Z M 430.117188 238.84375 " fill-opacity="1" fill-rule="nonzero"/><g clip-path="url(#02847e1a68)"><path fill="#ffffff" d="M 505.277344 20.980469 L 93.464844 20.980469 C 53.492188 20.980469 20.980469 53.496094 20.980469 93.464844 L 20.980469 505.277344 C 20.980469 545.242188 53.492188 577.761719 93.464844 577.761719 L 505.277344 577.761719 C 545.242188 577.761719 577.761719 545.242188 577.761719 505.277344 L 577.761719 93.464844 C 577.761719 53.496094 545.242188 20.980469 505.277344 20.980469 Z M 526.863281 96.972656 L 526.863281 501.765625 C 526.863281 502.585938 526.820312 503.40625 526.742188 504.226562 C 526.660156 505.042969 526.539062 505.855469 526.378906 506.660156 C 526.214844 507.464844 526.015625 508.261719 525.777344 509.046875 C 525.539062 509.835938 525.261719 510.605469 524.945312 511.367188 C 524.632812 512.125 524.28125 512.867188 523.890625 513.589844 C 523.503906 514.316406 523.082031 515.019531 522.625 515.703125 C 522.167969 516.386719 521.679688 517.046875 521.160156 517.679688 C 520.636719 518.316406 520.085938 518.921875 519.503906 519.503906 C 518.921875 520.085938 518.316406 520.636719 517.679688 521.160156 C 517.046875 521.679688 516.386719 522.167969 515.703125 522.625 C 515.019531 523.082031 514.316406 523.503906 513.589844 523.890625 C 512.867188 524.28125 512.125 524.632812 511.367188 524.945312 C 510.605469 525.261719 509.835938 525.539062 509.046875 525.777344 C 508.261719 526.015625 507.464844 526.214844 506.660156 526.378906 C 505.855469 526.539062 505.042969 526.660156 504.226562 526.742188 C 503.40625 526.820312 502.585938 526.863281 501.765625 526.863281 L 96.972656 526.863281 C 96.152344 526.863281 95.332031 526.820312 94.515625 526.742188 C 93.695312 526.660156 92.886719 526.539062 92.078125 526.378906 C 91.273438 526.214844 90.476562 526.015625 89.691406 525.777344 C 88.90625 525.539062 88.132812 525.261719 87.375 524.945312 C 86.613281 524.632812 85.871094 524.28125 85.148438 523.890625 C 84.421875 523.503906 83.71875 523.082031 83.035156 522.625 C 82.351562 522.167969 81.695312 521.679688 81.058594 521.160156 C 80.421875 520.636719 79.816406 520.085938 79.234375 519.503906 C 78.652344 518.921875 78.101562 518.316406 77.582031 517.679688 C 77.058594 517.046875 76.570312 516.386719 76.113281 515.703125 C 75.65625 515.019531 75.234375 514.316406 74.847656 513.589844 C 74.460938 512.867188 74.109375 512.125 73.792969 511.367188 C 73.476562 510.605469 73.199219 509.835938 72.960938 509.046875 C 72.722656 508.261719 72.523438 507.464844 72.363281 506.660156 C 72.199219 505.855469 72.078125 505.042969 72 504.226562 C 71.917969 503.40625 71.875 502.585938 71.875 501.765625 L 71.875 96.972656 C 71.875 96.152344 71.917969 95.332031 72 94.515625 C 72.078125 93.695312 72.199219 92.886719 72.363281 92.078125 C 72.523438 91.273438 72.722656 90.476562 72.960938 89.691406 C 73.199219 88.90625 73.476562 88.132812 73.792969 87.375 C 74.109375 86.613281 74.460938 85.871094 74.847656 85.148438 C 75.234375 84.421875 75.65625 83.71875 76.113281 83.035156 C 76.570312 82.351562 77.058594 81.695312 77.582031 81.058594 C 78.101562 80.421875 78.652344 79.816406 79.234375 79.234375 C 79.816406 78.652344 80.421875 78.101562 81.058594 77.582031 C 81.695312 77.058594 82.351562 76.570312 83.035156 76.113281 C 83.71875 75.65625 84.421875 75.234375 85.148438 74.847656 C 85.871094 74.460938 86.613281 74.109375 87.375 73.792969 C 88.132812 73.476562 88.90625 73.199219 89.691406 72.960938 C 90.476562 72.722656 91.273438 72.523438 92.078125 72.363281 C 92.886719 72.199219 93.695312 72.078125 94.515625 72 C 95.332031 71.917969 96.152344 71.875 96.972656 71.875 L 501.765625 71.875 C 502.585938 71.875 503.40625 71.917969 504.226562 72 C 505.042969 72.078125 505.855469 72.199219 506.660156 72.363281 C 507.464844 72.523438 508.261719 72.722656 509.046875 72.960938 C 509.835938 73.199219 510.605469 73.476562 511.367188 73.792969 C 512.125 74.109375 512.867188 74.460938 513.589844 74.847656 C 514.316406 75.234375 515.019531 75.65625 515.703125 76.113281 C 516.386719 76.570312 517.046875 77.058594 517.679688 77.582031 C 518.316406 78.101562 518.921875 78.652344 519.503906 79.234375 C 520.085938 79.816406 520.636719 80.421875 521.160156 81.058594 C 521.679688 81.695312 522.167969 82.351562 522.625 83.035156 C 523.082031 83.71875 523.503906 84.421875 523.890625 85.148438 C 524.28125 85.871094 524.632812 86.613281 524.945312 87.375 C 525.261719 88.132812 525.539062 88.90625 525.777344 89.691406 C 526.015625 90.476562 526.214844 91.273438 526.378906 92.078125 C 526.539062 92.886719 526.660156 93.695312 526.742188 94.515625 C 526.820312 95.332031 526.863281 96.152344 526.863281 96.972656 Z M 526.863281 96.972656 " fill-opacity="1" fill-rule="nonzero"/></g></svg>