<svg xmlns="http://www.w3.org/2000/svg" xmlns:xlink="http://www.w3.org/1999/xlink" width="800" zoomAndPan="magnify" viewBox="0 0 600 599.999999" height="800" preserveAspectRatio="xMidYMid meet" version="1.0"><defs><clipPath id="aa1325bd4a"><path d="M 23.601562 114.121094 L 568.101562 114.121094 L 568.101562 480.121094 L 23.601562 480.121094 Z M 23.601562 114.121094 " clip-rule="nonzero"/></clipPath></defs><g clip-path="url(#aa1325bd4a)"><path fill="#ffffff" d="M 213.054688 219.988281 C 213.054688 216.4375 213.515625 209.734375 222.023438 204.78125 C 229.609375 200.371094 244.820312 196.898438 254.136719 202.074219 L 390.746094 276.398438 C 397.761719 280.394531 405.296875 288.878906 405.199219 298.058594 C 405.136719 304.046875 401.914062 309.363281 396.53125 312.285156 L 396.183594 312.496094 L 253.859375 382.96875 C 250.660156 384.621094 246.953125 385.292969 242.867188 385.292969 C 234.863281 385.296875 226.644531 382.703125 221.722656 379.757812 C 213.476562 374.832031 213.054688 368.253906 213.054688 364.765625 Z M 135.417969 480.09375 L 453.339844 480.09375 C 515.203125 480.09375 568.007812 426.363281 568.007812 364.503906 L 568.007812 216.566406 C 568.007812 154.699219 515.203125 114.253906 453.339844 114.253906 L 135.417969 114.253906 C 73.554688 114.253906 23.601562 154.699219 23.601562 216.566406 L 23.601562 364.503906 C 23.601562 426.363281 73.554688 480.09375 135.417969 480.09375 " fill-opacity="1" fill-rule="nonzero"/></g></svg>