<svg xmlns="http://www.w3.org/2000/svg" xmlns:xlink="http://www.w3.org/1999/xlink" width="800" zoomAndPan="magnify" viewBox="0 0 600 599.999999" height="800" preserveAspectRatio="xMidYMid meet" version="1.0"><defs><clipPath id="6a30eda4ac"><path d="M 40 39.46875 L 564.46875 39.46875 L 564.46875 564.46875 L 40 564.46875 Z M 40 39.46875 " clip-rule="nonzero"/></clipPath></defs><g clip-path="url(#6a30eda4ac)"><path fill="#130073" d="M 303.550781 39.46875 C 231.199219 39.46875 222.515625 39.46875 195.023438 40.914062 C 167.527344 40.914062 147.269531 46.703125 131.351562 52.492188 C 113.988281 59.726562 99.519531 68.40625 85.046875 82.878906 C 70.578125 97.347656 61.894531 111.816406 54.660156 129.183594 C 47.425781 146.546875 43.085938 165.359375 43.085938 192.851562 C 40.191406 223.238281 40.191406 231.921875 40.191406 302.824219 C 40.191406 375.175781 40.191406 383.859375 41.636719 411.351562 C 41.636719 438.84375 47.425781 459.105469 53.214844 475.019531 C 60.449219 492.386719 69.132812 506.855469 83.601562 521.324219 C 98.070312 535.796875 112.542969 544.476562 129.90625 551.714844 C 147.269531 558.949219 166.082031 563.289062 193.574219 563.289062 C 221.070312 563.289062 231.199219 564.738281 302.101562 564.738281 C 373.007812 564.738281 383.136719 564.738281 410.628906 563.289062 C 438.121094 563.289062 458.378906 557.5 474.296875 551.714844 C 491.660156 544.476562 506.132812 535.796875 520.601562 521.324219 C 535.074219 506.855469 543.753906 492.386719 550.988281 475.019531 C 556.777344 457.65625 562.566406 438.84375 562.566406 411.351562 C 562.566406 383.859375 564.011719 373.730469 564.011719 302.824219 C 564.011719 230.472656 564.011719 221.792969 562.566406 194.296875 C 562.566406 166.804688 556.777344 146.546875 550.988281 130.628906 C 543.753906 113.265625 535.074219 98.796875 520.601562 84.324219 C 506.132812 69.855469 491.660156 61.171875 474.296875 53.9375 C 456.933594 46.703125 438.121094 42.359375 410.628906 42.359375 C 384.582031 39.46875 375.898438 39.46875 303.550781 39.46875 Z M 280.394531 87.21875 C 287.632812 87.21875 294.867188 87.21875 303.550781 87.21875 C 374.453125 87.21875 381.6875 87.21875 410.628906 88.664062 C 436.675781 88.664062 449.699219 94.453125 459.828125 97.347656 C 472.851562 101.6875 481.53125 107.476562 490.214844 117.605469 C 498.898438 126.289062 504.683594 134.96875 510.472656 147.992188 C 513.367188 156.675781 517.707031 171.144531 519.15625 197.191406 C 519.15625 224.6875 520.601562 233.367188 520.601562 304.273438 C 520.601562 375.175781 520.601562 382.410156 519.15625 411.351562 C 519.15625 437.398438 513.367188 450.421875 510.472656 460.550781 C 506.132812 473.574219 500.34375 482.257812 490.214844 490.9375 C 481.53125 499.621094 472.851562 505.410156 459.828125 511.195312 C 451.144531 515.539062 436.675781 518.433594 410.628906 519.878906 C 383.136719 519.878906 374.453125 521.324219 303.550781 521.324219 C 232.644531 521.324219 225.410156 521.324219 196.46875 519.878906 C 170.421875 519.878906 157.398438 514.089844 147.269531 511.195312 C 134.246094 506.855469 125.566406 501.066406 116.882812 490.9375 C 108.199219 482.257812 102.414062 473.574219 96.625 460.550781 C 93.730469 451.867188 89.390625 437.398438 87.941406 411.351562 C 87.941406 383.859375 86.496094 375.175781 86.496094 304.273438 C 86.496094 233.367188 86.496094 226.132812 87.941406 197.191406 C 87.941406 171.144531 93.730469 158.121094 96.625 147.992188 C 100.964844 134.96875 106.753906 126.289062 116.882812 117.605469 C 125.566406 108.925781 134.246094 103.136719 147.269531 97.347656 C 155.953125 93.007812 170.421875 90.113281 196.46875 88.664062 C 221.070312 88.664062 229.75 88.664062 278.949219 87.21875 Z M 303.550781 168.253906 C 228.304688 168.253906 167.527344 229.027344 167.527344 304.273438 C 167.527344 379.519531 228.304688 440.292969 303.550781 440.292969 C 378.792969 440.292969 439.570312 379.519531 439.570312 304.273438 C 439.570312 229.027344 378.792969 168.253906 303.550781 168.253906 Z M 303.550781 216.003906 C 352.746094 216.003906 391.816406 255.074219 391.816406 304.273438 C 391.816406 353.472656 352.746094 392.539062 303.550781 392.539062 C 254.351562 392.539062 215.28125 353.472656 215.28125 304.273438 C 215.28125 255.074219 254.351562 216.003906 303.550781 216.003906 Z M 303.550781 216.003906 " fill-opacity="1" fill-rule="nonzero"/></g></svg>