<svg xmlns="http://www.w3.org/2000/svg" xmlns:xlink="http://www.w3.org/1999/xlink" width="800" zoomAndPan="magnify" viewBox="0 0 600 599.999999" height="800" preserveAspectRatio="xMidYMid meet" version="1.0"><defs><clipPath id="7d79a2e6bc"><path d="M 39.46875 39.46875 L 555.46875 39.46875 L 555.46875 555.46875 L 39.46875 555.46875 Z M 39.46875 39.46875 " clip-rule="nonzero"/></clipPath></defs><path fill="#130073" d="M 159.761719 226.609375 L 197.929688 226.609375 C 198.410156 226.609375 198.886719 226.65625 199.359375 226.75 C 199.828125 226.84375 200.289062 226.984375 200.730469 227.167969 C 201.175781 227.351562 201.597656 227.578125 201.996094 227.84375 C 202.394531 228.113281 202.765625 228.414062 203.105469 228.753906 C 203.445312 229.09375 203.75 229.464844 204.015625 229.863281 C 204.28125 230.261719 204.507812 230.683594 204.691406 231.128906 C 204.875 231.574219 205.015625 232.03125 205.109375 232.503906 C 205.203125 232.972656 205.25 233.449219 205.25 233.929688 L 205.25 443.859375 C 205.25 444.339844 205.203125 444.816406 205.109375 445.285156 C 205.015625 445.757812 204.875 446.214844 204.691406 446.660156 C 204.507812 447.105469 204.28125 447.527344 204.015625 447.925781 C 203.75 448.324219 203.445312 448.695312 203.105469 449.035156 C 202.765625 449.375 202.394531 449.679688 201.996094 449.945312 C 201.597656 450.210938 201.175781 450.4375 200.730469 450.621094 C 200.289062 450.804688 199.828125 450.945312 199.359375 451.039062 C 198.886719 451.132812 198.410156 451.179688 197.929688 451.179688 L 159.761719 451.179688 C 159.28125 451.179688 158.808594 451.132812 158.335938 451.039062 C 157.863281 450.945312 157.40625 450.804688 156.960938 450.621094 C 156.519531 450.4375 156.097656 450.210938 155.695312 449.945312 C 155.296875 449.679688 154.929688 449.375 154.589844 449.035156 C 154.25 448.695312 153.945312 448.324219 153.679688 447.925781 C 153.410156 447.527344 153.183594 447.105469 153 446.660156 C 152.816406 446.214844 152.679688 445.757812 152.585938 445.285156 C 152.492188 444.816406 152.445312 444.339844 152.445312 443.859375 L 152.445312 233.929688 C 152.445312 233.449219 152.492188 232.972656 152.585938 232.503906 C 152.679688 232.03125 152.816406 231.574219 153 231.128906 C 153.183594 230.683594 153.410156 230.261719 153.679688 229.863281 C 153.945312 229.464844 154.25 229.09375 154.589844 228.753906 C 154.929688 228.414062 155.296875 228.113281 155.695312 227.84375 C 156.097656 227.578125 156.519531 227.351562 156.960938 227.167969 C 157.40625 226.984375 157.863281 226.84375 158.335938 226.75 C 158.808594 226.65625 159.28125 226.609375 159.761719 226.609375 Z M 159.761719 226.609375 " fill-opacity="1" fill-rule="nonzero"/><path fill="#130073" d="M 209.589844 174.820312 C 209.53125 156.820312 196.621094 143.765625 178.847656 143.765625 C 161.078125 143.765625 147.671875 157.167969 147.671875 174.945312 C 147.671875 183.214844 150.691406 190.90625 156.167969 196.605469 C 161.792969 202.460938 169.542969 205.683594 177.980469 205.683594 C 187.332031 205.683594 195.679688 202.390625 201.488281 196.371094 C 206.929688 190.742188 209.800781 183.140625 209.59375 174.945312 C 209.59375 174.902344 209.589844 174.875 209.589844 174.820312 Z M 209.589844 174.820312 " fill-opacity="1" fill-rule="nonzero"/><path fill="#130073" d="M 418.648438 241.378906 C 399.644531 224.378906 377.371094 221.839844 365.785156 221.839844 C 348.472656 221.839844 331.980469 226.464844 318.078125 235.21875 C 312 239.042969 306.511719 243.582031 301.609375 248.828125 L 300.648438 233.457031 C 300.621094 232.996094 300.546875 232.542969 300.433594 232.09375 C 300.320312 231.648438 300.164062 231.214844 299.964844 230.796875 C 299.769531 230.378906 299.535156 229.984375 299.261719 229.609375 C 298.992188 229.238281 298.6875 228.890625 298.351562 228.574219 C 298.011719 228.261719 297.648438 227.976562 297.257812 227.730469 C 296.871094 227.484375 296.460938 227.277344 296.03125 227.105469 C 295.601562 226.9375 295.15625 226.808594 294.703125 226.722656 C 294.25 226.636719 293.792969 226.59375 293.332031 226.597656 L 259.519531 226.597656 C 259.015625 226.597656 258.515625 226.648438 258.023438 226.75 C 257.53125 226.855469 257.054688 227.007812 256.589844 227.207031 C 256.128906 227.410156 255.695312 227.65625 255.28125 227.945312 C 254.871094 228.238281 254.496094 228.570312 254.152344 228.9375 C 253.8125 229.308594 253.507812 229.707031 253.25 230.140625 C 252.988281 230.570312 252.777344 231.023438 252.609375 231.5 C 252.445312 231.976562 252.328125 232.460938 252.261719 232.960938 C 252.199219 233.460938 252.183594 233.960938 252.222656 234.464844 C 253.421875 250.488281 253.933594 267.316406 253.933594 290.734375 L 253.933594 443.859375 C 253.933594 444.339844 253.980469 444.816406 254.074219 445.285156 C 254.167969 445.757812 254.308594 446.214844 254.492188 446.660156 C 254.675781 447.105469 254.902344 447.527344 255.167969 447.925781 C 255.433594 448.324219 255.738281 448.695312 256.078125 449.035156 C 256.417969 449.375 256.789062 449.679688 257.1875 449.945312 C 257.585938 450.210938 258.007812 450.4375 258.453125 450.621094 C 258.894531 450.804688 259.355469 450.945312 259.824219 451.039062 C 260.296875 451.132812 260.773438 451.179688 261.253906 451.179688 L 299.421875 451.179688 C 299.902344 451.179688 300.378906 451.132812 300.851562 451.039062 C 301.324219 450.945312 301.78125 450.804688 302.222656 450.621094 C 302.667969 450.4375 303.089844 450.210938 303.488281 449.945312 C 303.890625 449.679688 304.257812 449.375 304.597656 449.035156 C 304.9375 448.695312 305.242188 448.324219 305.507812 447.925781 C 305.777344 447.527344 306 447.105469 306.1875 446.660156 C 306.371094 446.214844 306.507812 445.757812 306.601562 445.285156 C 306.695312 444.816406 306.742188 444.339844 306.742188 443.859375 L 306.742188 317.640625 C 306.742188 311.707031 307.53125 306.140625 308.90625 302.359375 C 308.945312 302.242188 308.984375 302.121094 309.023438 301.992188 C 314.183594 285.15625 329.847656 268.132812 353.207031 268.132812 C 367.664062 268.132812 378.042969 273.078125 384.9375 283.246094 C 391.160156 292.441406 394.453125 306.136719 394.453125 322.839844 L 394.453125 443.859375 C 394.453125 444.339844 394.5 444.816406 394.59375 445.285156 C 394.6875 445.757812 394.828125 446.214844 395.011719 446.660156 C 395.195312 447.105469 395.421875 447.527344 395.6875 447.925781 C 395.953125 448.324219 396.257812 448.695312 396.597656 449.035156 C 396.9375 449.375 397.308594 449.679688 397.707031 449.945312 C 398.105469 450.210938 398.527344 450.4375 398.972656 450.621094 C 399.417969 450.804688 399.875 450.945312 400.34375 451.039062 C 400.816406 451.132812 401.292969 451.179688 401.773438 451.179688 L 439.945312 451.179688 C 440.425781 451.179688 440.898438 451.132812 441.371094 451.039062 C 441.84375 450.945312 442.300781 450.804688 442.746094 450.621094 C 443.1875 450.4375 443.609375 450.210938 444.007812 449.945312 C 444.410156 449.679688 444.777344 449.375 445.117188 449.035156 C 445.457031 448.695312 445.761719 448.324219 446.027344 447.925781 C 446.296875 447.527344 446.523438 447.105469 446.707031 446.660156 C 446.890625 446.214844 447.027344 445.757812 447.121094 445.285156 C 447.214844 444.816406 447.261719 444.339844 447.261719 443.859375 L 447.261719 318.507812 C 447.261719 300.648438 444.5625 284.820312 439.242188 271.464844 C 434.460938 259.449219 427.53125 249.328125 418.648438 241.378906 Z M 418.648438 241.378906 " fill-opacity="1" fill-rule="nonzero"/><g clip-path="url(#7d79a2e6bc)"><path fill="#130073" d="M 488.300781 39.46875 L 106.644531 39.46875 C 69.601562 39.46875 39.46875 69.605469 39.46875 106.644531 L 39.46875 488.300781 C 39.46875 525.339844 69.601562 555.480469 106.644531 555.480469 L 488.300781 555.480469 C 525.339844 555.480469 555.480469 525.339844 555.480469 488.300781 L 555.480469 106.644531 C 555.480469 69.605469 525.339844 39.46875 488.300781 39.46875 Z M 508.308594 109.898438 L 508.308594 485.046875 C 508.308594 485.808594 508.269531 486.570312 508.195312 487.328125 C 508.121094 488.085938 508.007812 488.839844 507.859375 489.585938 C 507.707031 490.332031 507.523438 491.070312 507.300781 491.796875 C 507.082031 492.527344 506.824219 493.242188 506.53125 493.945312 C 506.238281 494.648438 505.914062 495.335938 505.554688 496.007812 C 505.195312 496.679688 504.804688 497.332031 504.382812 497.964844 C 503.957031 498.597656 503.503906 499.210938 503.023438 499.796875 C 502.539062 500.386719 502.027344 500.949219 501.488281 501.488281 C 500.949219 502.027344 500.386719 502.539062 499.796875 503.023438 C 499.210938 503.503906 498.597656 503.957031 497.964844 504.382812 C 497.332031 504.804688 496.679688 505.195312 496.007812 505.554688 C 495.335938 505.914062 494.648438 506.238281 493.945312 506.53125 C 493.242188 506.824219 492.527344 507.082031 491.796875 507.300781 C 491.070312 507.523438 490.332031 507.707031 489.585938 507.859375 C 488.835938 508.007812 488.085938 508.121094 487.328125 508.195312 C 486.570312 508.269531 485.808594 508.308594 485.046875 508.308594 L 109.898438 508.308594 C 109.136719 508.308594 108.375 508.269531 107.617188 508.195312 C 106.859375 508.121094 106.109375 508.007812 105.359375 507.859375 C 104.613281 507.707031 103.875 507.523438 103.148438 507.300781 C 102.417969 507.082031 101.703125 506.824219 101 506.53125 C 100.296875 506.238281 99.609375 505.914062 98.9375 505.554688 C 98.265625 505.195312 97.613281 504.804688 96.980469 504.382812 C 96.347656 503.957031 95.734375 503.503906 95.148438 503.023438 C 94.558594 502.539062 93.996094 502.027344 93.457031 501.488281 C 92.917969 500.949219 92.40625 500.386719 91.925781 499.796875 C 91.441406 499.210938 90.988281 498.597656 90.5625 497.964844 C 90.140625 497.332031 89.75 496.679688 89.390625 496.007812 C 89.03125 495.335938 88.707031 494.648438 88.414062 493.945312 C 88.121094 493.242188 87.867188 492.527344 87.644531 491.796875 C 87.421875 491.070312 87.238281 490.332031 87.085938 489.585938 C 86.9375 488.839844 86.824219 488.085938 86.75 487.328125 C 86.675781 486.570312 86.636719 485.808594 86.636719 485.046875 L 86.636719 109.898438 C 86.636719 109.136719 86.675781 108.375 86.75 107.617188 C 86.824219 106.859375 86.9375 106.109375 87.085938 105.359375 C 87.238281 104.613281 87.421875 103.875 87.644531 103.148438 C 87.867188 102.417969 88.121094 101.703125 88.414062 101 C 88.707031 100.296875 89.03125 99.609375 89.390625 98.9375 C 89.75 98.265625 90.140625 97.613281 90.5625 96.980469 C 90.988281 96.347656 91.441406 95.734375 91.925781 95.148438 C 92.40625 94.558594 92.917969 93.996094 93.457031 93.457031 C 93.996094 92.917969 94.558594 92.40625 95.148438 91.925781 C 95.734375 91.441406 96.347656 90.988281 96.980469 90.5625 C 97.613281 90.140625 98.265625 89.75 98.9375 89.390625 C 99.609375 89.03125 100.296875 88.707031 101 88.414062 C 101.703125 88.121094 102.417969 87.867188 103.148438 87.644531 C 103.875 87.421875 104.613281 87.238281 105.359375 87.085938 C 106.109375 86.9375 106.859375 86.824219 107.617188 86.75 C 108.375 86.675781 109.136719 86.636719 109.898438 86.636719 L 485.046875 86.636719 C 485.808594 86.636719 486.570312 86.675781 487.328125 86.75 C 488.085938 86.824219 488.835938 86.9375 489.585938 87.085938 C 490.332031 87.238281 491.070312 87.421875 491.796875 87.644531 C 492.527344 87.867188 493.242188 88.121094 493.945312 88.414062 C 494.648438 88.707031 495.335938 89.03125 496.007812 89.390625 C 496.679688 89.75 497.332031 90.140625 497.964844 90.5625 C 498.597656 90.988281 499.210938 91.441406 499.796875 91.925781 C 500.386719 92.40625 500.949219 92.917969 501.488281 93.457031 C 502.027344 93.996094 502.539062 94.558594 503.023438 95.148438 C 503.503906 95.734375 503.957031 96.347656 504.382812 96.980469 C 504.804688 97.613281 505.195312 98.265625 505.554688 98.9375 C 505.914062 99.609375 506.238281 100.296875 506.53125 101 C 506.824219 101.703125 507.082031 102.417969 507.300781 103.148438 C 507.523438 103.875 507.707031 104.613281 507.859375 105.359375 C 508.007812 106.109375 508.121094 106.859375 508.195312 107.617188 C 508.269531 108.375 508.308594 109.136719 508.308594 109.898438 Z M 508.308594 109.898438 " fill-opacity="1" fill-rule="nonzero"/></g></svg>