<svg xmlns="http://www.w3.org/2000/svg" xmlns:xlink="http://www.w3.org/1999/xlink" width="800" zoomAndPan="magnify" viewBox="0 0 600 599.999999" height="800" preserveAspectRatio="xMidYMid meet" version="1.0"><defs><clipPath id="d53ab187ae"><path d="M 50 115.550781 L 550 115.550781 L 550 484.550781 L 50 484.550781 Z M 50 115.550781 " clip-rule="nonzero"/></clipPath></defs><g clip-path="url(#d53ab187ae)"><path fill="#130073" d="M 133.398438 115.554688 C 87.5625 115.554688 50.101562 153.015625 50.101562 198.851562 L 50.101562 401.148438 C 50.101562 446.988281 87.5625 484.449219 133.398438 484.449219 L 466.59375 484.449219 C 512.433594 484.449219 549.894531 446.988281 549.894531 401.148438 L 549.894531 198.851562 C 549.894531 153.015625 512.433594 115.554688 466.59375 115.554688 Z M 133.398438 151.253906 L 466.59375 151.253906 C 493.273438 151.253906 514.195312 172.171875 514.195312 198.851562 L 514.195312 401.148438 C 514.195312 427.828125 493.273438 448.75 466.59375 448.75 L 133.398438 448.75 C 106.722656 448.75 85.800781 427.828125 85.800781 401.148438 L 85.800781 198.851562 C 85.800781 172.171875 106.722656 151.253906 133.398438 151.253906 Z M 258.90625 204.800781 C 258.308594 204.785156 257.714844 204.792969 257.121094 204.835938 C 256.523438 204.878906 255.933594 204.949219 255.34375 205.050781 C 254.757812 205.148438 254.175781 205.277344 253.601562 205.4375 C 253.027344 205.597656 252.460938 205.78125 251.902344 205.996094 C 251.347656 206.214844 250.804688 206.457031 250.273438 206.726562 C 249.742188 206.996094 249.222656 207.292969 248.722656 207.613281 C 248.21875 207.933594 247.734375 208.28125 247.265625 208.652344 C 246.800781 209.023438 246.351562 209.414062 245.921875 209.828125 C 245.496094 210.246094 245.089844 210.679688 244.703125 211.136719 C 244.320312 211.59375 243.957031 212.066406 243.621094 212.558594 C 243.285156 213.050781 242.972656 213.558594 242.6875 214.082031 C 242.402344 214.605469 242.140625 215.140625 241.910156 215.691406 C 241.675781 216.238281 241.472656 216.800781 241.296875 217.371094 C 241.121094 217.9375 240.972656 218.515625 240.855469 219.101562 C 240.734375 219.683594 240.648438 220.273438 240.585938 220.867188 C 240.527344 221.460938 240.5 222.054688 240.5 222.652344 L 240.5 377.347656 C 240.492188 378.449219 240.585938 379.535156 240.78125 380.617188 C 240.976562 381.695312 241.269531 382.75 241.660156 383.777344 C 242.046875 384.804688 242.527344 385.785156 243.097656 386.722656 C 243.667969 387.660156 244.320312 388.539062 245.054688 389.355469 C 245.785156 390.175781 246.585938 390.917969 247.457031 391.585938 C 248.328125 392.257812 249.25 392.84375 250.226562 393.339844 C 251.203125 393.839844 252.21875 394.246094 253.273438 394.558594 C 254.324219 394.871094 255.398438 395.085938 256.488281 395.199219 C 258.289062 395.394531 260.074219 395.316406 261.851562 394.96875 C 263.625 394.621094 265.308594 394.015625 266.902344 393.152344 L 409.699219 315.804688 C 411.117188 315.039062 412.40625 314.101562 413.570312 312.988281 C 414.734375 311.875 415.726562 310.625 416.554688 309.242188 C 417.378906 307.859375 418.003906 306.390625 418.433594 304.839844 C 418.863281 303.285156 419.074219 301.703125 419.074219 300.09375 C 419.074219 298.484375 418.863281 296.902344 418.433594 295.347656 C 418.003906 293.796875 417.378906 292.328125 416.554688 290.945312 C 415.726562 289.5625 414.734375 288.3125 413.570312 287.199219 C 412.40625 286.085938 411.117188 285.148438 409.699219 284.382812 L 266.902344 207.035156 C 264.414062 205.652344 261.75 204.910156 258.90625 204.800781 Z M 276.199219 252.773438 L 363.585938 300 L 276.199219 347.414062 Z M 276.199219 252.773438 " fill-opacity="1" fill-rule="nonzero"/></g></svg>